<svg width="368" height="305" viewBox="0 0 368 305" fill="none" xmlns="http://www.w3.org/2000/svg">
<path fill-rule="evenodd" clip-rule="evenodd" d="M304 104.551L304 232.47C304 236.891 300.413 240.475 295.991 240.47L263.968 240.432C259.734 240.427 256.272 237.134 255.995 232.971C255.998 232.813 256 232.655 256 232.496L255.999 184.498C255.999 171.244 245.239 160.499 231.984 160.499C219.138 160.499 208.636 150.406 208 137.717V64.5095L264.03 64.5507C286.109 64.5669 304 82.4708 304 104.551ZM207.97 48.5095L208 48.5095L264.041 48.5507C294.953 48.5734 320 73.6388 320 104.551L320 232.47C320 245.735 309.238 256.485 295.972 256.47L263.949 256.432C257.835 256.425 252.258 254.132 248.024 250.363C243.775 254.177 238.158 256.497 231.998 256.496L71.9984 256.486C58.7442 256.485 48 245.74 48 232.486V104.498C48 73.57 73.0722 48.4979 104 48.498L191.97 48.4986H192H193.142H207.97V48.5095ZM144 64.4983L144 120.523C144 133.777 154.745 144.523 168 144.523H192L192 142.914C192 161.462 207.036 176.498 225.584 176.498C233.533 176.498 239.977 182.942 239.977 190.891L239.977 232.432C239.977 232.623 239.98 232.813 239.984 233.003C239.722 237.185 236.247 240.496 231.999 240.496L191.726 240.494L192 184.534C192.022 180.116 188.457 176.517 184.039 176.495C179.621 176.473 176.022 180.038 176 184.456L175.726 240.459L175.726 240.492L127.9 240.489V184.495C127.9 180.077 124.318 176.495 119.9 176.495C115.482 176.495 111.9 180.077 111.9 184.495V240.488L71.9995 240.486C67.5814 240.485 64 236.904 64 232.486V104.498C64 82.4066 81.9087 64.4979 104 64.498L144 64.4983ZM268.04 112.715C268.04 106.088 262.667 100.715 256.04 100.715C249.412 100.715 244.04 106.088 244.04 112.715C244.04 119.343 249.412 124.715 256.04 124.715C262.667 124.715 268.04 119.343 268.04 112.715Z" fill="#131517"/>
<path fill-rule="evenodd" clip-rule="evenodd" d="M304 104.551L304 232.47C304 236.891 300.413 240.475 295.991 240.47L263.968 240.432C259.734 240.427 256.272 237.134 255.995 232.971C255.998 232.813 256 232.655 256 232.496L255.999 184.498C255.999 171.244 245.239 160.499 231.984 160.499C219.138 160.499 208.636 150.406 208 137.717V64.5095L264.03 64.5507C286.109 64.5669 304 82.4708 304 104.551ZM144 64.4983L144 120.523C144 133.778 154.745 144.523 168 144.523H192L192 142.914C192 161.462 207.036 176.498 225.584 176.498C233.533 176.498 239.977 182.942 239.977 190.891L239.977 232.432C239.977 232.623 239.98 232.813 239.984 233.003C239.722 237.185 236.247 240.496 231.999 240.496L191.726 240.494L192 184.534C192.022 180.116 188.457 176.517 184.039 176.495C179.621 176.473 176.022 180.038 176 184.456L175.726 240.459L175.726 240.492L127.9 240.489V184.495C127.9 180.077 124.318 176.495 119.9 176.495C115.482 176.495 111.9 180.077 111.9 184.495V240.488L71.9995 240.486C67.5814 240.485 64 236.904 64 232.486V104.498C64 82.4066 81.9087 64.4979 104 64.498L144 64.4983ZM268.04 112.715C268.04 106.088 262.667 100.715 256.04 100.715C249.412 100.715 244.04 106.088 244.04 112.715C244.04 119.343 249.412 124.715 256.04 124.715C262.667 124.715 268.04 119.343 268.04 112.715Z" fill="#F6F95C"/>
</svg>
