<svg width="336" height="272" viewBox="0 0 336 272" fill="none" xmlns="http://www.w3.org/2000/svg">
<path fill-rule="evenodd" clip-rule="evenodd" d="M288 88.0527L288 215.971C288 220.393 284.413 223.977 279.991 223.971L247.968 223.934C243.734 223.929 240.272 220.636 239.995 216.473C239.998 216.315 240 216.157 240 215.998L239.999 168C239.999 154.746 229.239 144.001 215.984 144.001C203.138 144.001 192.636 133.908 192 121.219V48.0115L248.03 48.0526C270.109 48.0689 288 65.9727 288 88.0527ZM128 48.0002L128 104.025C128 117.279 138.745 128.025 152 128.025H176L176 126.416C176 144.964 191.036 160 209.584 160C217.533 160 223.977 166.444 223.977 174.393L223.977 215.934C223.977 216.125 223.98 216.315 223.984 216.505C223.722 220.687 220.247 223.998 215.999 223.998L175.726 223.995L176 168.036C176.022 163.618 172.457 160.019 168.039 159.997C163.621 159.975 160.022 163.54 160 167.958L159.726 223.961L159.726 223.994L111.9 223.991V167.997C111.9 163.579 108.318 159.997 103.9 159.997C99.4816 159.997 95.8999 163.579 95.8999 167.997V223.99L55.9995 223.988C51.5814 223.987 48 220.406 48 215.988V88C48 65.9085 65.9087 47.9999 88.0002 48L128 48.0002ZM252.04 96.2172C252.04 89.5898 246.667 84.2172 240.04 84.2172C233.412 84.2172 228.04 89.5898 228.04 96.2172C228.04 102.845 233.412 108.217 240.04 108.217C246.667 108.217 252.04 102.845 252.04 96.2172Z" fill="#F6F95C"/>
</svg>
