<svg width="912" height="272" viewBox="0 0 912 272" fill="none" xmlns="http://www.w3.org/2000/svg">
<path fill-rule="evenodd" clip-rule="evenodd" d="M288 88.0507L288 215.97C288 220.391 284.413 223.975 279.991 223.97L247.968 223.932C243.734 223.927 240.272 220.634 239.995 216.471C239.998 216.313 240 216.155 240 215.996L239.999 167.998C239.999 154.744 229.239 143.999 215.984 143.999C203.138 143.999 192.636 133.906 192 121.217V48.0095L248.03 48.0507C270.109 48.0669 288 65.9708 288 88.0507ZM128 47.9983L128 104.023C128 117.277 138.745 128.023 152 128.023H176L176 126.414C176 144.962 191.036 159.998 209.584 159.998C217.533 159.998 223.977 166.442 223.977 174.391L223.977 215.932C223.977 216.123 223.98 216.313 223.984 216.503C223.722 220.685 220.247 223.996 215.999 223.996L175.726 223.994L176 168.034C176.022 163.616 172.457 160.017 168.039 159.995C163.621 159.973 160.022 163.538 160 167.956L159.726 223.959L159.726 223.992L111.9 223.989V167.995C111.9 163.577 108.318 159.995 103.9 159.995C99.4816 159.995 95.8999 163.577 95.8999 167.995V223.988L55.9995 223.986C51.5814 223.985 48 220.404 48 215.986V87.998C48 65.9066 65.9087 47.9979 88.0002 47.998L128 47.9983ZM252.04 96.2153C252.04 89.5879 246.667 84.2153 240.04 84.2153C233.412 84.2153 228.04 89.5879 228.04 96.2153C228.04 102.843 233.412 108.215 240.04 108.215C246.667 108.215 252.04 102.843 252.04 96.2153Z" fill="#F6F95C"/>
<path fill-rule="evenodd" clip-rule="evenodd" d="M368 64V207.595H391.842V149.066H427.135C440.776 149.066 451.727 145.239 459.987 137.585C468.247 129.932 472.377 119.393 472.377 105.968C472.377 91.916 468.31 81.4397 460.175 74.5391C452.165 67.513 441.152 64 427.135 64H368ZM442.528 122.718C438.273 126.356 432.078 128.176 423.943 128.176H391.842V85.4546H423.943C431.953 85.4546 438.086 87.2738 442.341 90.9123C446.721 94.5508 448.911 99.8204 448.911 106.721C448.911 113.622 446.784 118.954 442.528 122.718ZM545.272 207.595C530.523 207.595 518.132 204.323 508.098 197.779C498.065 191.234 490.569 182.569 485.613 171.783C480.777 160.876 478.36 148.939 478.36 135.971C478.36 123.004 480.777 111.127 485.613 100.341C490.569 89.4337 498.065 80.708 508.098 74.1637C518.132 67.6193 530.463 64.3472 545.09 64.3472C561.773 64.3472 575.313 68.2859 585.709 76.1633C596.227 83.9195 603.178 94.5844 606.563 108.158H580.995C578.456 100.765 574.104 95.0691 567.939 91.0698C561.894 86.9493 554.218 84.8891 544.909 84.8891C535.601 84.8891 527.743 87.1311 521.336 91.6152C514.929 96.0993 510.093 102.219 506.829 109.976C503.686 117.611 502.114 126.155 502.114 135.608C502.114 145.424 503.807 154.21 507.192 161.967C510.577 169.723 515.594 175.843 522.242 180.327C528.891 184.811 536.991 187.053 546.541 187.053C555.366 187.053 562.982 185.114 569.389 181.236C575.796 177.358 580.33 172.086 582.989 165.421C584.077 162.633 584.863 159.361 585.347 155.604C585.588 153.907 586.131 150.151 586.131 150.151H573.016H553.976V130.699H608.195V208H587.16V184.326H584.259C584.259 190.628 581.055 195.84 574.648 199.96C571.021 202.384 566.609 204.262 561.411 205.596C556.333 206.929 550.954 207.595 545.272 207.595ZM628.049 202.296C632.179 206.06 638.311 207.942 646.446 207.942H660.15V189.311H653.955C650.201 189.311 647.573 188.432 646.071 186.676C644.694 184.919 644.006 181.971 644.006 177.831V64.3472H621.854V183.665C621.854 192.322 623.919 198.532 628.049 202.296ZM670.144 207.942V104.369H691.953V207.942H670.144ZM681.049 92.6598C677.106 92.6598 673.718 91.4246 670.884 88.9542C668.173 86.3602 666.818 82.3327 666.818 78.5035C666.818 74.6743 668.173 70.7086 670.884 68.2381C673.718 65.6442 677.106 64.3472 681.049 64.3472C685.115 64.3472 688.503 65.6442 691.214 68.2381C693.925 70.7086 695.28 74.6743 695.28 78.5035C695.28 82.3327 693.925 86.3602 691.214 88.9542C688.503 91.4246 685.115 92.6598 681.049 92.6598ZM723.742 202.296C727.872 206.06 734.005 207.942 742.14 207.942H760.913V189.311H749.837C745.582 189.311 742.828 188.37 741.577 186.488C740.325 184.48 739.699 181.469 739.699 177.454V121.183H761.1V102.74H739.699V64.3472H717.547V102.74H701.778V121.183H717.547V183.665C717.547 192.322 719.612 198.532 723.742 202.296ZM813.352 97.1016C823.04 97.1016 831.755 99.1748 839.257 103.27L839.266 103.243C846.785 107.355 852.785 113.376 857.104 121.157C861.406 128.912 863.718 138.117 864 148.518C864 150.123 863.872 152.534 863.59 155.926L863.505 156.924H782.473V157.298C782.729 167.351 785.802 175.515 791.588 181.527C797.358 187.522 805.031 190.566 814.385 190.566C821.632 190.566 827.871 188.71 832.915 185.04C837.943 181.397 841.356 176.235 843.055 169.72L843.268 168.914H862.387L862.14 170.206C860.057 181.24 854.756 190.384 846.409 197.385C838.053 204.394 827.691 207.942 815.615 207.942C805.091 207.942 795.745 205.618 787.841 201.036C779.913 196.448 773.673 189.854 769.294 181.448C764.925 173.068 762.714 163.465 762.714 152.518C762.714 141.57 764.856 131.801 769.081 123.5C773.315 115.172 779.349 108.613 786.996 104.016C794.644 99.4262 803.666 97.1016 813.352 97.1016ZM793.364 121.912C787.876 126.718 784.606 133.007 783.616 140.616H844.327C843.362 132.487 840.187 126.058 834.887 121.495C829.305 116.698 822.127 114.261 813.558 114.261C805.945 114.261 799.142 116.837 793.364 121.912Z" fill="#F5F5F5"/>
</svg>
