<svg width="608" height="181" viewBox="0 0 930 304" fill="none" xmlns="http://www.w3.org/2000/svg">
<path fill-rule="evenodd" clip-rule="evenodd" d="M302.125 104.053L302.125 231.971C302.125 236.393 298.563 239.977 294.174 239.971L262.384 239.934C258.182 239.929 254.745 236.636 254.47 232.473C254.473 232.315 254.474 232.157 254.474 231.998L254.474 184C254.474 170.746 243.792 160.001 230.634 160.001C217.882 160.001 207.456 149.908 206.825 137.219V64.0115L262.446 64.0526C284.364 64.0689 302.125 81.9727 302.125 104.053ZM143.292 64.0002L143.291 120.025C143.291 133.279 153.958 144.025 167.116 144.025H190.941L190.941 142.416C190.941 160.964 205.868 176 224.281 176C232.172 176 238.569 182.444 238.569 190.393L238.569 231.934C238.569 232.125 238.571 232.315 238.575 232.505C238.316 236.687 234.866 239.998 230.649 239.998L190.67 239.995L190.941 184.036C190.963 179.618 187.425 176.019 183.039 175.997C178.653 175.975 175.08 179.54 175.058 183.958L174.786 239.961L174.786 239.994L127.309 239.991V183.997C127.309 179.579 123.753 175.997 119.367 175.997C114.981 175.997 111.426 179.579 111.426 183.997V239.99L71.8164 239.988C67.4305 239.987 63.8752 236.406 63.8752 231.988V104C63.8752 81.9085 81.6533 63.9999 103.584 64L143.292 64.0002ZM266.426 112.217C266.426 105.59 261.093 100.217 254.514 100.217C247.935 100.217 242.601 105.59 242.601 112.217C242.601 118.845 247.935 124.217 254.514 124.217C261.093 124.217 266.426 118.845 266.426 112.217Z" fill="#F6F95C"/>
<path fill-rule="evenodd" clip-rule="evenodd" d="M302.118 104.053L302.118 231.971C302.118 236.393 298.557 239.977 294.167 239.971L262.38 239.934C258.177 239.929 254.741 236.636 254.466 232.473C254.469 232.315 254.47 232.157 254.47 231.998L254.47 184C254.47 170.746 243.789 160.001 230.631 160.001C217.88 160.001 207.454 149.908 206.823 137.219V64.0115L262.441 64.0526C284.359 64.0689 302.118 81.9727 302.118 104.053ZM206.793 48.0114L206.823 48.0115L262.453 48.0527C293.137 48.0754 318 73.1408 318 104.053L318 231.971C318 245.237 307.317 255.987 294.148 255.971L262.361 255.934C256.292 255.927 250.756 253.634 246.554 249.865C242.335 253.679 236.759 255.999 230.645 255.998L71.8219 255.988C58.6652 255.987 48 245.242 48 231.988V104C48 73.0719 72.8878 47.9998 103.588 48L190.911 48.0005H190.941H192.075H206.793V48.0114ZM143.294 64.0002L143.294 120.025C143.294 133.279 153.96 144.025 167.117 144.025H190.941L190.941 142.416C190.941 160.964 205.867 176 224.278 176C232.169 176 238.566 182.444 238.566 190.393L238.566 231.934C238.566 232.125 238.568 232.315 238.572 232.505C238.313 236.687 234.863 239.998 230.646 239.998L190.669 239.995L190.941 184.036C190.962 179.618 187.424 176.019 183.039 175.997C178.653 175.975 175.08 179.54 175.059 183.958L174.787 239.961L174.787 239.994L127.312 239.991V183.997C127.312 179.579 123.757 175.997 119.371 175.997C114.985 175.997 111.43 179.579 111.43 183.997V239.99L71.823 239.988C67.4374 239.987 63.8823 236.406 63.8823 231.988V104C63.8823 81.9085 81.6594 63.9999 103.588 64L143.294 64.0002ZM266.421 112.217C266.421 105.59 261.088 100.217 254.51 100.217C247.931 100.217 242.598 105.59 242.598 112.217C242.598 118.845 247.931 124.217 254.51 124.217C261.088 124.217 266.421 118.845 266.421 112.217Z" fill="#131517"/>
<path fill-rule="evenodd" clip-rule="evenodd" d="M386 80V223.595H409.842V165.066H445.135C458.776 165.066 469.727 161.239 477.987 153.585C486.247 145.932 490.377 135.393 490.377 121.968C490.377 107.916 486.31 97.4397 478.175 90.5391C470.165 83.513 459.152 80 445.135 80H386ZM460.528 138.718C456.273 142.356 450.078 144.176 441.943 144.176H409.842V101.455H441.943C449.953 101.455 456.086 103.274 460.341 106.912C464.721 110.551 466.911 115.82 466.911 122.721C466.911 129.622 464.784 134.954 460.528 138.718ZM563.272 223.595C548.523 223.595 536.132 220.323 526.098 213.779C516.065 207.234 508.569 198.569 503.613 187.783C498.777 176.876 496.36 164.939 496.36 151.971C496.36 139.004 498.777 127.127 503.613 116.341C508.569 105.434 516.065 96.708 526.098 90.1637C536.132 83.6193 548.463 80.3472 563.09 80.3472C579.773 80.3472 593.313 84.2859 603.709 92.1633C614.227 99.9195 621.178 110.584 624.563 124.158H598.995C596.456 116.765 592.104 111.069 585.939 107.07C579.894 102.949 572.218 100.889 562.909 100.889C553.601 100.889 545.743 103.131 539.336 107.615C532.929 112.099 528.093 118.219 524.829 125.976C521.686 133.611 520.114 142.155 520.114 151.608C520.114 161.424 521.807 170.21 525.192 177.967C528.577 185.723 533.594 191.843 540.242 196.327C546.891 200.811 554.991 203.053 564.541 203.053C573.366 203.053 580.982 201.114 587.389 197.236C593.796 193.358 598.33 188.086 600.989 181.421C602.077 178.633 602.863 175.361 603.347 171.604C603.588 169.907 604.131 166.151 604.131 166.151H591.016H571.976V146.699H626.195V224H605.16V200.326H602.259C602.259 206.628 599.055 211.84 592.648 215.96C589.021 218.384 584.609 220.262 579.411 221.596C574.333 222.929 568.954 223.595 563.272 223.595ZM646.049 218.296C650.179 222.06 656.311 223.942 664.446 223.942H678.15V205.311H671.955C668.201 205.311 665.573 204.432 664.071 202.676C662.694 200.919 662.006 197.971 662.006 193.831V80.3472H639.854V199.665C639.854 208.322 641.919 214.532 646.049 218.296ZM688.144 223.942V120.369H709.953V223.942H688.144ZM699.049 108.66C695.106 108.66 691.718 107.425 688.884 104.954C686.173 102.36 684.818 98.3327 684.818 94.5035C684.818 90.6743 686.173 86.7086 688.884 84.2381C691.718 81.6442 695.106 80.3472 699.049 80.3472C703.115 80.3472 706.503 81.6442 709.214 84.2381C711.925 86.7086 713.28 90.6743 713.28 94.5035C713.28 98.3327 711.925 102.36 709.214 104.954C706.503 107.425 703.115 108.66 699.049 108.66ZM741.742 218.296C745.872 222.06 752.005 223.942 760.14 223.942H778.913V205.311H767.837C763.582 205.311 760.828 204.37 759.577 202.488C758.325 200.48 757.699 197.469 757.699 193.454V137.183H779.1V118.74H757.699V80.3472H735.547V118.74H719.778V137.183H735.547V199.665C735.547 208.322 737.612 214.532 741.742 218.296ZM831.352 113.102C841.04 113.102 849.755 115.175 857.257 119.27L857.266 119.243C864.785 123.355 870.785 129.376 875.104 137.157C879.406 144.912 881.718 154.117 882 164.518C882 166.123 881.872 168.534 881.59 171.926L881.505 172.924H800.473V173.298C800.729 183.351 803.802 191.515 809.588 197.527C815.358 203.522 823.031 206.566 832.385 206.566C839.632 206.566 845.871 204.71 850.915 201.04C855.943 197.397 859.356 192.235 861.055 185.72L861.268 184.914H880.387L880.14 186.206C878.057 197.24 872.756 206.384 864.409 213.385C856.053 220.394 845.691 223.942 833.615 223.942C823.091 223.942 813.745 221.618 805.841 217.036C797.913 212.448 791.673 205.854 787.294 197.448C782.925 189.068 780.714 179.465 780.714 168.518C780.714 157.57 782.856 147.801 787.081 139.5C791.315 131.172 797.349 124.613 804.996 120.016C812.644 115.426 821.666 113.102 831.352 113.102ZM811.364 137.912C805.876 142.718 802.606 149.007 801.616 156.616H862.327C861.362 148.487 858.187 142.058 852.887 137.495C847.305 132.698 840.127 130.261 831.558 130.261C823.945 130.261 817.142 132.837 811.364 137.912Z" fill="#131517"/>
</svg>
