<svg xmlns="http://www.w3.org/2000/svg" width="15" height="14" viewBox="0 0 15 14" fill="currentColor">
    <path d="M11.0002 6C13.2094 6 15.0002 7.79086 15.0002 10C15.0002 12.2091 13.2094 14 11.0002 14C8.79111 14 7.00024 12.2091 7.00024 10C7.00024 7.79086 8.79111 6 11.0002 6ZM10.7461 0C12.8172 0 14.4961 1.67893 14.4961 3.75V4.24561C14.4961 4.65982 14.1603 4.99561 13.7461 4.99561C13.3319 4.99561 12.9961 4.65982 12.9961 4.24561V3.75C12.9961 2.50736 11.9887 1.5 10.7461 1.5H4.74609C3.50345 1.5 2.49609 2.50736 2.49609 3.75V9.97046C2.49609 11.2131 3.50345 12.2205 4.74609 12.2205H6.05259C6.46681 12.2205 6.80259 12.5562 6.80259 12.9705C6.80259 13.3847 6.46681 13.7205 6.05259 13.7205H4.74609C2.67503 13.7205 0.996094 12.0415 0.996094 9.97046V3.75C0.996094 1.67893 2.67503 0 4.74609 0H10.7461ZM11.0002 7.25488L10.8985 7.26173C10.5657 7.30688 10.3022 7.57032 10.2571 7.90311L10.2502 8.00488V9.25088L9.00104 9.25L8.89926 9.25674C8.56642 9.30153 8.3027 9.56469 8.2572 9.89744L8.25024 9.9992L8.25698 10.101C8.30178 10.4338 8.56494 10.6975 8.89769 10.743L8.99945 10.75L10.2502 10.7509V12.0036L10.2571 12.1054C10.3022 12.4382 10.5657 12.7016 10.8985 12.7468L11.0002 12.7536L11.102 12.7468C11.4348 12.7016 11.6982 12.4382 11.7434 12.1054L11.7502 12.0036V10.7529L12.9994 10.7542L13.1012 10.7475C13.4341 10.7027 13.6978 10.4395 13.7433 10.1068L13.7502 10.005L13.7435 9.90326C13.6987 9.57042 13.4355 9.3067 13.1028 9.2612L13.001 9.25424L11.7502 9.25288V8.00488L11.7434 7.90311C11.6982 7.57032 11.4348 7.30688 11.102 7.26173L11.0002 7.25488Z"></path>
</svg>