<svg version="1.1"
     baseProfile="full" xmlns="http://www.w3.org/2000/svg" fill="currentColor" width="16" height="16" viewBox="0 0 16 16" fill2="#8A8F98" class="sc-qQvjG bcMvhN"><path d="M13.7191 2H2.17335C1.50213 2 0.958008 2.59695 0.958008 3.33333V5.33333C0.958008 5.70152 1.23007 6 1.56568 6H14.3268C14.6624 6 14.9344 5.70152 14.9344 5.33333V3.33333C14.9344 2.59695 14.3903 2 13.7191 2C13.7191 2 13.7191 2 13.7191 2Z"></path><path d="M13.2689 7H2.62355C2.25598 7 1.95801 7.27252 1.95801 7.6087V12.7826C1.95801 13.455 2.55396 14 3.2891 14H12.6033C13.3385 14 13.9344 13.455 13.9344 12.7826V7.6087C13.9344 7.27252 13.6365 7 13.2689 7ZM10.1092 9.13043C10.1085 9.55037 9.73648 9.89063 9.27732 9.89131H6.61513C6.15567 9.89131 5.7832 9.55065 5.7832 9.13044C5.7832 8.71022 6.15567 8.36957 6.61513 8.36957H9.27731C9.73647 8.37024 10.1085 8.7105 10.1092 9.13043Z"></path></svg>