<svg xmlns="http://www.w3.org/2000/svg" width="16" height="16" viewBox="0 0 16 16" fill="currentColor">
    <path d="M7 7a2.5 2.5 0 10.001-4.999A2.5 2.5 0 007 7zm0 1c-1.335 0-4 .893-4 2.667v.666c0 .367.225.667.5.667h2.049c.904-.909 2.417-1.911 4.727-2.009v-.72a.27.27 0 01.007-.063C9.397 8.404 7.898 8 7 8zm4.427 2.028a.266.266 0 01.286.032l2.163 1.723a.271.271 0 01.013.412l-2.163 1.97a.27.27 0 01-.452-.2v-.956c-3.328.133-5.282 1.508-5.287 1.535a.27.27 0 01-.266.227h-.022a.27.27 0 01-.249-.271c0-.046 1.549-3.328 5.824-3.509v-.72a.27.27 0 01.153-.243z"></path>
</svg>