<svg xmlns="http://www.w3.org/2000/svg" width="14" height="12" viewBox="0 0 14 12" fill="#6B6F76"><path d="M9.23183 0H4.76817C3.50357 1.8844e-08 2.29077 0.502359 1.39656 1.39656C0.502359 2.29077 0 3.50357 0 4.76817C0 6.03276 0.502359 7.24557 1.39656 8.13977C2.29077 9.03397 3.50357 9.53633 4.76817 9.53633H4.95833V11.375C4.95841 11.4917 4.99349 11.6057 5.05902 11.7022C5.12455 11.7988 5.21753 11.8734 5.32594 11.9166C5.43435 11.9597 5.55322 11.9694 5.66717 11.9443C5.78112 11.9192 5.88492 11.8605 5.96517 11.7758L8.08675 9.5375H9.23183C10.4964 9.5375 11.7092 9.03514 12.6034 8.14094C13.4976 7.24673 14 6.03393 14 4.76933C14 3.50474 13.4976 2.29194 12.6034 1.39773C11.7092 0.503526 10.4964 0.00116665 9.23183 0.00116665V0ZM9.23183 8.36967H7.83592C7.75666 8.36964 7.67824 8.38577 7.60543 8.41706C7.53261 8.44835 7.46694 8.49415 7.41242 8.55167L6.125 9.91083V8.95417C6.125 8.79946 6.06354 8.65108 5.95415 8.54169C5.84475 8.43229 5.69638 8.37083 5.54167 8.37083H4.76817C3.81299 8.37083 2.89693 7.99139 2.22152 7.31598C1.54611 6.64057 1.16667 5.72451 1.16667 4.76933C1.16667 3.81416 1.54611 2.8981 2.22152 2.22269C2.89693 1.54728 3.81299 1.16783 4.76817 1.16783H9.23183C10.187 1.16783 11.1031 1.54728 11.7785 2.22269C12.4539 2.8981 12.8333 3.81416 12.8333 4.76933C12.8333 5.72451 12.4539 6.64057 11.7785 7.31598C11.1031 7.99139 10.187 8.37083 9.23183 8.37083V8.36967Z"></path></svg>