<svg version="1.1" baseProfile="full" xmlns="http://www.w3.org/2000/svg" fill="currentColor" width="14" height="14" viewBox="0 0 14 14" >
    <path d="M13.9408 7.91426L11.9576 7.65557C11.9855 7.4419 12 7.22314 12 7C12 6.77686 11.9855 6.5581 11.9576 6.34443L13.9408 6.08573C13.9799 6.38496 14 6.69013 14 7C14 7.30987 13.9799 7.61504 13.9408 7.91426ZM13.4688 4.32049C13.2328 3.7514 12.9239 3.22019 12.5538 2.73851L10.968 3.95716C11.2328 4.30185 11.4533 4.68119 11.6214 5.08659L13.4688 4.32049ZM11.2615 1.4462L10.0428 3.03204C9.69815 2.76716 9.31881 2.54673 8.91341 2.37862L9.67951 0.531163C10.2486 0.767153 10.7798 1.07605 11.2615 1.4462ZM7.91426 0.0591659L7.65557 2.04237C7.4419 2.01449 7.22314 2 7 2C6.77686 2 6.5581 2.01449 6.34443 2.04237L6.08574 0.059166C6.38496 0.0201343 6.69013 0 7 0C7.30987 0 7.61504 0.0201343 7.91426 0.0591659ZM4.32049 0.531164L5.08659 2.37862C4.68119 2.54673 4.30185 2.76716 3.95716 3.03204L2.73851 1.4462C3.22019 1.07605 3.7514 0.767153 4.32049 0.531164ZM1.4462 2.73851L3.03204 3.95716C2.76716 4.30185 2.54673 4.68119 2.37862 5.08659L0.531164 4.32049C0.767153 3.7514 1.07605 3.22019 1.4462 2.73851ZM0.0591659 6.08574C0.0201343 6.38496 0 6.69013 0 7C0 7.30987 0.0201343 7.61504 0.059166 7.91426L2.04237 7.65557C2.01449 7.4419 2 7.22314 2 7C2 6.77686 2.01449 6.5581 2.04237 6.34443L0.0591659 6.08574ZM0.531164 9.67951L2.37862 8.91341C2.54673 9.31881 2.76716 9.69815 3.03204 10.0428L1.4462 11.2615C1.07605 10.7798 0.767153 10.2486 0.531164 9.67951ZM2.73851 12.5538L3.95716 10.968C4.30185 11.2328 4.68119 11.4533 5.08659 11.6214L4.32049 13.4688C3.7514 13.2328 3.22019 12.9239 2.73851 12.5538ZM6.08574 13.9408L6.34443 11.9576C6.5581 11.9855 6.77686 12 7 12C7.22314 12 7.4419 11.9855 7.65557 11.9576L7.91427 13.9408C7.61504 13.9799 7.30987 14 7 14C6.69013 14 6.38496 13.9799 6.08574 13.9408ZM9.67951 13.4688L8.91341 11.6214C9.31881 11.4533 9.69815 11.2328 10.0428 10.968L11.2615 12.5538C10.7798 12.9239 10.2486 13.2328 9.67951 13.4688ZM12.5538 11.2615L10.968 10.0428C11.2328 9.69815 11.4533 9.31881 11.6214 8.91341L13.4688 9.67951C13.2328 10.2486 12.924 10.7798 12.5538 11.2615Z" stroke="none" fill="#bec2c8"></path>
</svg>
