<svg xmlns="http://www.w3.org/2000/svg" width="16" height="16" viewBox="0 0 16 16" fill="currentColor">
    <path fill-rule="evenodd" clip-rule="evenodd" d="M12.3687 6.5C12.6448 6.5 12.8687 6.72386 12.8687 7C12.8687 7.03856 12.8642 7.07699 12.8554 7.11452L11.3628 13.4581C11.1502 14.3615 10.3441 15 9.41597 15H6.58403C5.65593 15 4.84977 14.3615 4.6372 13.4581L3.14459 7.11452C3.08135 6.84572 3.24798 6.57654 3.51678 6.51329C3.55431 6.50446 3.59274 6.5 3.6313 6.5H12.3687ZM8.5 1C9.88071 1 11 2.11929 11 3.5H13C13.5523 3.5 14 3.94772 14 4.5V5C14 5.27614 13.7761 5.5 13.5 5.5H2.5C2.22386 5.5 2 5.27614 2 5V4.5C2 3.94772 2.44772 3.5 3 3.5H5C5 2.11929 6.11929 1 7.5 1H8.5ZM8.5 2.5H7.5C6.94772 2.5 6.5 2.94772 6.5 3.5H9.5C9.5 2.94772 9.05228 2.5 8.5 2.5Z"></path>
</svg>