<svg xmlns="http://www.w3.org/2000/svg" width="16" height="16" viewBox="0 0 16 16" fill="#6B6F76"><path fill-rule="evenodd" clip-rule="evenodd" d="M3.09963 2.39149C3.26933 1.58074 3.9842 1 4.81252 1H12.0002C12.2228 1 12.434 1.09897 12.5765 1.27011C12.719 1.44125 12.7781 1.66686 12.7377 1.88587L10.9877 11.3859C10.9134 11.7895 10.5288 12.0577 10.1255 11.9896C10.0847 11.9964 10.0428 12 10 12H3.25C2.83579 12 2.5 12.3358 2.5 12.75C2.5 13.1642 2.83579 13.5 3.25 13.5H10.595C11.1952 13.5 11.7106 13.0735 11.8229 12.4839L13.5132 3.60968C13.5908 3.20278 13.9834 2.93576 14.3903 3.01326C14.7972 3.09077 15.0643 3.48345 14.9868 3.89035L13.2964 12.7646C13.0494 14.0616 11.9154 15 10.595 15H3.25C2.00736 15 1 13.9927 1 12.75C1 12.6966 1.00186 12.6437 1.00552 12.5912C0.995775 12.5117 0.998723 12.4292 1.01606 12.3464L3.09963 2.39149ZM5.35954 3C5.14433 3 4.95326 3.13772 4.8852 3.34189L4.71853 3.84189C4.61061 4.16565 4.85159 4.5 5.19287 4.5H9.13878C9.354 4.5 9.54507 4.36228 9.61312 4.15811L9.77979 3.65811C9.88771 3.33435 9.64673 3 9.30545 3H5.35954Z"></path></svg>