<svg xmlns="http://www.w3.org/2000/svg" width="16" height="16" viewBox="0 0 16 16" fill="currentColor">
    <path d="M14.2458 10C14.6255 10 14.9393 10.2822 14.9889 10.6482L14.9958 10.75V12.2475C14.9958 13.7083 13.8567 14.9034 12.4177 14.9922L12.2504 14.9975L10.7513 15C10.3371 15.0007 10.0007 14.6655 10 14.2513C9.99936 13.8716 10.281 13.5573 10.647 13.507L10.7487 13.5L12.2479 13.4975C12.8943 13.4964 13.4255 13.0047 13.4893 12.3751L13.4958 12.2475V10.75C13.4958 10.3358 13.8316 10 14.2458 10ZM1.75 10C2.16421 10 2.5 10.3358 2.5 10.75V12.2475C2.5 12.937 3.05836 13.4963 3.74789 13.4975L5.24703 13.5C5.66125 13.5007 5.99646 13.8371 5.99576 14.2513C5.99506 14.6655 5.65871 15.0007 5.2445 15L3.74535 14.9975C2.22839 14.9949 1 13.7644 1 12.2475V10.75C1 10.3358 1.33579 10 1.75 10ZM8 6C9.10457 6 10 6.89543 10 8C10 9.10457 9.10457 10 8 10C6.89543 10 6 9.10457 6 8C6 6.89543 6.89543 6 8 6ZM10.7513 1L12.2504 1.00254C13.7674 1.0051 14.9958 2.23556 14.9958 3.75253V5.25C14.9958 5.66422 14.66 6 14.2458 6C13.8316 6 13.4958 5.66422 13.4958 5.25V3.75253C13.4958 3.063 12.9374 2.5037 12.2479 2.50253L10.7487 2.5C10.3345 2.4993 9.9993 2.16295 10 1.74873C10.0007 1.33452 10.3371 0.999302 10.7513 1ZM5.24873 1C5.66295 0.999303 5.9993 1.33452 6 1.74873C6.0007 2.16295 5.66548 2.4993 5.25127 2.5L3.75212 2.50253C3.06259 2.5037 2.50424 3.063 2.50424 3.75253V5.25C2.50424 5.66422 2.16845 6 1.75424 6C1.34002 6 1.00424 5.66422 1.00424 5.25V3.75253C1.00424 2.23556 2.23262 1.0051 3.74959 1.00254L5.24873 1Z"></path>
</svg>