<svg xmlns="http://www.w3.org/2000/svg" width="16" height="16" viewBox="0 0 16 16" fill="#6B6F76"><path d="M5.333 3.167c-1.196 0-2.166.97-2.166 2.166v5.5c0 1.197.97 2.167 2.166 2.167h1.165c.172.412.385.803.634 1.167H5.333A3.333 3.333 0 012 10.833v-5.5A3.333 3.333 0 015.333 2h5.5c1.43 0 2.649.9 3.123 2.164A6.519 6.519 0 0012.54 4a2.163 2.163 0 00-1.708-.833h-5.5zm9.465 5.61a.298.298 0 00-.038-.32L12.806 6.05a.304.304 0 00-.462-.01l-2.187 2.449a.303.303 0 00.229.504l1.07-.01c-.115 3.735-3.093 4.39-3.123 4.396a.304.304 0 00-.252.302v.024a.303.303 0 00.307.276c.051 0 5.171-.223 5.331-5.021l.808-.008a.304.304 0 00.271-.175z"></path> </svg>