<svg version="1.1" baseProfile="full" xmlns="http://www.w3.org/2000/svg" fill="currentColor">
    <path d="M0 7C0 7.23206 0.0921872 7.45462 0.256282 7.61872C0.420376 7.78281 0.642936 7.875 0.875 7.875H5.97917C6.01784 7.875 6.05494 7.89036 6.08229 7.91771C6.10964 7.94506 6.125 7.98216 6.125 8.02083V13.125C6.125 13.3571 6.21719 13.5796 6.38128 13.7437C6.54538 13.9078 6.76794 14 7 14C7.23206 14 7.45462 13.9078 7.61872 13.7437C7.78281 13.5796 7.875 13.3571 7.875 13.125V8.02083C7.875 7.98216 7.89036 7.94506 7.91771 7.91771C7.94506 7.89036 7.98216 7.875 8.02083 7.875H13.125C13.3571 7.875 13.5796 7.78281 13.7437 7.61872C13.9078 7.45462 14 7.23206 14 7C14 6.76794 13.9078 6.54538 13.7437 6.38128C13.5796 6.21719 13.3571 6.125 13.125 6.125H8.02083C7.98216 6.125 7.94506 6.10964 7.91771 6.08229C7.89036 6.05494 7.875 6.01784 7.875 5.97917V0.875C7.875 0.642936 7.78281 0.420376 7.61872 0.256282C7.45462 0.0921872 7.23206 0 7 0C6.76794 0 6.54538 0.0921872 6.38128 0.256282C6.21719 0.420376 6.125 0.642936 6.125 0.875V5.97917C6.125 6.01784 6.10964 6.05494 6.08229 6.08229C6.05494 6.10964 6.01784 6.125 5.97917 6.125H0.875C0.642936 6.125 0.420376 6.21719 0.256282 6.38128C0.0921872 6.54538 0 6.76794 0 7H0Z"></path>
</svg>