<svg version="1.1" baseProfile="full" xmlns="http://www.w3.org/2000/svg" fill="currentColor" width="16" height="16" viewBox="-3 -3 16 16" stroke="none" fill2="#8A8F98" class="sc-psFCR gOOUPy">
    <path d="M3.45455 0H0.545455C0.244208 0 0 0.244208 0 0.545455V3.45455C0 3.75579 0.244208 4 0.545455 4H3.45455C3.75579 4 4 3.75579 4 3.45455V0.545455C4 0.244208 3.75579 0 3.45455 0Z"></path>
    <path d="M9.95479 0H7.0457C6.74445 0 6.50024 0.244208 6.50024 0.545455V3.45455C6.50024 3.75579 6.74445 4 7.0457 4H9.95479C10.256 4 10.5002 3.75579 10.5002 3.45455V0.545455C10.5002 0.244208 10.256 0 9.95479 0Z"></path>
    <path d="M3.45455 6.50024H0.545455C0.244208 6.50024 0 6.74445 0 7.0457V9.95479C0 10.256 0.244208 10.5002 0.545455 10.5002H3.45455C3.75579 10.5002 4 10.256 4 9.95479V7.0457C4 6.74445 3.75579 6.50024 3.45455 6.50024Z"></path>
    <path d="M9.95479 6.50024H7.0457C6.74445 6.50024 6.50024 6.74445 6.50024 7.0457V9.95479C6.50024 10.256 6.74445 10.5002 7.0457 10.5002H9.95479C10.256 10.5002 10.5002 10.256 10.5002 9.95479V7.0457C10.5002 6.74445 10.256 6.50024 9.95479 6.50024Z"></path>
</svg>