<svg xmlns="http://www.w3.org/2000/svg" width="16" height="16" viewBox="0 0 16 16" fill="#6B6F76"><path d="M8.08 4.966a1.17 1.17 0 00-1.25 1.168.696.696 0 11-1.393 0A2.563 2.563 0 118.854 8.55a.237.237 0 00-.157.224V9.4a.696.696 0 01-1.393 0v-.626A1.63 1.63 0 018.39 7.237a1.17 1.17 0 00-.31-2.27z"></path><path d="M8 1.696a6.304 6.304 0 100 12.608A6.304 6.304 0 008 1.696zM.304 8a7.696 7.696 0 1115.392 0A7.696 7.696 0 01.304 8z"></path><path d="M8.8 11.75a.75.75 0 11-1.5 0 .75.75 0 011.5 0z"></path><path d="M8.05 11.571a.179.179 0 100 .358.179.179 0 000-.358zm0 .929a.75.75 0 100-1.5.75.75 0 000 1.5z"></path></svg>