<svg xmlns="http://www.w3.org/2000/svg" width="14" height="15" viewBox="0 0 14 15" fill="currentColor">
    <path fill-rule="evenodd" clip-rule="evenodd" d="M4.3776 6.50001C4.70912 6.50001 4.97788 6.76863 4.97788 7.10001L4.97621 8.87389C7.35127 9.09802 13.0028 9.79058 13.0028 10.2022C13.0028 10.5134 10.3281 10.9976 4.97864 11.6549L4.97788 13.4016C4.97788 13.5453 4.92633 13.6841 4.83261 13.793C4.61637 14.0442 4.23736 14.0726 3.98606 13.8564L0.139169 10.5477C0.123836 10.5345 0.109526 10.5202 0.096362 10.5048C-0.047482 10.3371 -0.0280603 10.0846 0.139742 9.94083L3.98692 6.64447C4.09572 6.55125 4.2343 6.50001 4.3776 6.50001ZM9.16739 0.208655C9.38363 -0.042523 9.76264 -0.0709269 10.0139 0.145213L13.8608 3.45394C13.8762 3.46712 13.8905 3.48145 13.9036 3.4968C14.0475 3.66453 14.0281 3.91705 13.8603 4.06082L10.0131 7.35718C9.90428 7.4504 9.7657 7.50164 9.6224 7.50164C9.29087 7.50164 9.02212 7.23301 9.02212 6.90164L9.02379 5.12776C6.64872 4.90363 0.997194 4.21107 0.997194 3.79949C0.997194 3.48829 3.67191 3.00406 9.02135 2.34678L9.02212 0.60001C9.02212 0.456384 9.07366 0.317523 9.16739 0.208655Z"></path>
</svg>