<svg xmlns="http://www.w3.org/2000/svg" width="16" height="16" viewBox="0 0 16 16" fill="#6B6F76"><path d="M3 1.75c-.69 0-1.25.56-1.25 1.25v10c0 .69.56 1.25 1.25 1.25h10c.69 0 1.25-.56 1.25-1.25V3c0-.69-.56-1.25-1.25-1.25H3zM.25 3A2.75 2.75 0 013 .25h10A2.75 2.75 0 0115.75 3v10A2.75 2.75 0 0113 15.75H3A2.75 2.75 0 01.25 13V3z"></path><path d="M8.1 12h-.6a.5.5 0 01-.5-.5V7.7a.5.5 0 01.5-.5h.6a.5.5 0 01.5.5v3.8a.5.5 0 01-.5.5zm0-6.4h-.6a.5.5 0 01-.5-.5v-.6a.5.5 0 01.5-.5h.6a.5.5 0 01.5.5v.6a.5.5 0 01-.5.5z"></path></svg>