<svg version="1.1" baseProfile="full" xmlns="http://www.w3.org/2000/svg" fill="currentColor" width="16" height="16" viewBox="0 0 16 16" fill2="#8A8F98" class="sc-pcozx jBVqjY">
    <path d="M14.7827 13.7357L10.9043 9.8563C11.7508 8.74318 12.1431 7.34997 12.0017 5.95854C11.8603 4.56711 11.1958 3.28135 10.1426 2.36138C9.08944 1.44142 7.72624 0.95593 6.32879 1.00315C4.93135 1.05037 3.60401 1.62676 2.6153 2.61572C1.6266 3.60468 1.05035 4.93236 1.00315 6.33017C0.955941 7.72797 1.4413 9.09152 2.36103 10.145C3.28076 11.1984 4.56619 11.8631 5.95726 12.0045C7.34833 12.146 8.74118 11.7536 9.85402 10.9068L13.7324 14.7862C13.8729 14.9233 14.0614 15 14.2576 15C14.4538 15 14.6422 14.9233 14.7827 14.7862C14.9218 14.6469 15 14.458 15 14.261C15 14.064 14.9218 13.8751 14.7827 13.7357V13.7357ZM2.52547 6.53482C2.52547 5.74157 2.76063 4.96613 3.20122 4.30657C3.64182 3.64701 4.26805 3.13294 5.00072 2.82938C5.7334 2.52581 6.53962 2.44639 7.31743 2.60114C8.09523 2.7559 8.8097 3.13788 9.37046 3.6988C9.93123 4.25971 10.3131 4.97435 10.4678 5.75236C10.6225 6.53037 10.5431 7.33679 10.2397 8.06966C9.93617 8.80253 9.42224 9.42892 8.76285 9.86963C8.10345 10.3103 7.32822 10.5456 6.53517 10.5456C5.47212 10.5443 4.45296 10.1213 3.70127 9.36945C2.94958 8.61756 2.52672 7.59814 2.52547 6.53482V6.53482Z"></path>
</svg>