<svg xmlns="http://www.w3.org/2000/svg" width="16" height="16" viewBox="0 0 24 24" fill="none" class="sc-pjHjD CNlcm"><path d="M8.76089 0C8.44679 0.000291666 8.13582 0.0624547 7.84575 0.182939C7.55567 0.303423 7.29217 0.479869 7.0703 0.702199C6.84842 0.924528 6.67252 1.18839 6.55263 1.47871C6.43273 1.76903 6.37121 2.08012 6.37156 2.39422C6.37127 2.70829 6.43284 3.01933 6.55275 3.3096C6.67267 3.59987 6.84859 3.86368 7.07046 4.08596C7.29233 4.30824 7.55581 4.48465 7.84585 4.6051C8.1359 4.72556 8.44683 4.78771 8.76089 4.788H11.1502V2.39422C11.1506 2.08012 11.089 1.76903 10.9692 1.47871C10.8493 1.18839 10.6734 0.924528 10.4515 0.702199C10.2296 0.479869 9.96611 0.303423 9.67603 0.182939C9.38596 0.0624547 9.07499 0.000291666 8.76089 0ZM8.76089 6.38444H2.38933C2.07527 6.38474 1.76434 6.44688 1.4743 6.56734C1.18425 6.6878 0.92077 6.8642 0.6989 7.08648C0.47703 7.30877 0.301114 7.57258 0.181197 7.86284C0.0612799 8.15311 -0.000290474 8.46416 1.488e-06 8.77822C-0.000348881 9.09232 0.0611784 9.40342 0.181069 9.69374C0.300961 9.98406 0.476867 10.2479 0.698743 10.4702C0.920619 10.6926 1.18412 10.869 1.47419 10.9895C1.76427 11.11 2.07523 11.1722 2.38933 11.1724H8.76089C9.07499 11.1722 9.38596 11.11 9.67603 10.9895C9.96611 10.869 10.2296 10.6926 10.4515 10.4702C10.6734 10.2479 10.8493 9.98406 10.9692 9.69374C11.089 9.40342 11.1506 9.09232 11.1502 8.77822C11.1505 8.46416 11.0889 8.15311 10.969 7.86284C10.8491 7.57258 10.6732 7.30877 10.4513 7.08648C10.2295 6.8642 9.96598 6.6878 9.67593 6.56734C9.38589 6.44688 9.07495 6.38474 8.76089 6.38444Z" fill="#36C5F0"></path><path d="M23.8934 8.77822C23.8937 8.46416 23.8321 8.15311 23.7122 7.86284C23.5923 7.57258 23.4164 7.30877 23.1945 7.08648C22.9726 6.8642 22.7091 6.6878 22.4191 6.56734C22.129 6.44688 21.8181 6.38474 21.5041 6.38444C21.19 6.38474 20.8791 6.44688 20.589 6.56734C20.299 6.6878 20.0355 6.8642 19.8136 7.08648C19.5917 7.30877 19.4158 7.57258 19.2959 7.86284C19.176 8.15311 19.1144 8.46416 19.1147 8.77822V11.1724H21.5041C21.8182 11.1722 22.1291 11.11 22.4192 10.9895C22.7093 10.869 22.9728 10.6926 23.1946 10.4702C23.4165 10.2479 23.5924 9.98406 23.7123 9.69374C23.8322 9.40342 23.8937 9.09232 23.8934 8.77822ZM17.5218 8.77822V2.39422C17.5222 2.08012 17.4607 1.76903 17.3408 1.47871C17.2209 1.18839 17.045 0.924528 16.8231 0.702199C16.6012 0.479869 16.3377 0.303423 16.0476 0.182939C15.7576 0.0624547 15.4466 0.000291666 15.1325 0C14.8184 0.000291666 14.5074 0.0624547 14.2174 0.182939C13.9273 0.303423 13.6638 0.479869 13.4419 0.702199C13.22 0.924528 13.0441 1.18839 12.9242 1.47871C12.8043 1.76903 12.7428 2.08012 12.7432 2.39422V8.77822C12.7428 9.09232 12.8043 9.40342 12.9242 9.69374C13.0441 9.98406 13.22 10.2479 13.4419 10.4702C13.6638 10.6926 13.9273 10.869 14.2174 10.9895C14.5074 11.11 14.8184 11.1722 15.1325 11.1724C15.4466 11.1722 15.7576 11.11 16.0476 10.9895C16.3377 10.869 16.6012 10.6926 16.8231 10.4702C17.045 10.2479 17.2209 9.98406 17.3408 9.69374C17.4607 9.40342 17.5222 9.09232 17.5218 8.77822Z" fill="#2EB67D"></path><path d="M15.1325 23.941C15.4466 23.9407 15.7576 23.8785 16.0476 23.7581C16.3377 23.6376 16.6012 23.4611 16.8231 23.2388C17.045 23.0165 17.2209 22.7526 17.3408 22.4623C17.4607 22.172 17.5222 21.8609 17.5218 21.5468C17.5221 21.2327 17.4606 20.9217 17.3406 20.6314C17.2207 20.3411 17.0448 20.0773 16.8229 19.855C16.6011 19.6328 16.3376 19.4564 16.0475 19.3359C15.7575 19.2154 15.4466 19.1533 15.1325 19.153H12.7432V21.5468C12.7428 21.8609 12.8043 22.172 12.9242 22.4623C13.0441 22.7526 13.22 23.0165 13.4419 23.2388C13.6638 23.4611 13.9273 23.6376 14.2174 23.7581C14.5074 23.8785 14.8184 23.9407 15.1325 23.941ZM15.1325 17.5566H21.5041C21.8181 17.5563 22.129 17.4941 22.4191 17.3737C22.7091 17.2532 22.9726 17.0768 23.1945 16.8545C23.4164 16.6322 23.5923 16.3684 23.7122 16.0782C23.8321 15.7879 23.8937 15.4768 23.8934 15.1628C23.8937 14.8487 23.8322 14.5376 23.7123 14.2473C23.5924 13.9569 23.4165 13.6931 23.1946 13.4708C22.9728 13.2484 22.7093 13.072 22.4192 12.9515C22.1291 12.831 21.8182 12.7688 21.5041 12.7686H15.1325C14.8184 12.7688 14.5074 12.831 14.2174 12.9515C13.9273 13.072 13.6638 13.2484 13.4419 13.4708C13.22 13.6931 13.0441 13.9569 12.9242 14.2473C12.8043 14.5376 12.7428 14.8487 12.7432 15.1628C12.7429 15.4768 12.8044 15.7879 12.9244 16.0782C13.0443 16.3684 13.2202 16.6322 13.4421 16.8545C13.6639 17.0768 13.9274 17.2532 14.2175 17.3737C14.5075 17.4941 14.8184 17.5563 15.1325 17.5566Z" fill="#ECB22E"></path><path d="M2.02511e-06 15.3351C-0.000289937 15.6492 0.0612804 15.9603 0.181198 16.2505C0.301115 16.5408 0.477031 16.8046 0.698901 17.0269C0.920771 17.2492 1.18425 17.4256 1.4743 17.546C1.76434 17.6665 2.07527 17.7286 2.38934 17.7289C2.7034 17.7286 3.01433 17.6665 3.30438 17.546C3.59442 17.4256 3.8579 17.2492 4.07977 17.0269C4.30164 16.8046 4.47756 16.5408 4.59747 16.2505C4.71739 15.9603 4.77896 15.6492 4.77867 15.3351V12.9409H2.38934C2.0752 12.9412 1.76419 13.0034 1.47409 13.1239C1.18399 13.2444 0.920468 13.4209 0.698586 13.6433C0.476704 13.8657 0.300807 14.1296 0.180942 14.4199C0.0610774 14.7103 -0.000406765 15.0214 2.02511e-06 15.3356V15.3351ZM6.37156 15.3351V21.7191C6.37121 22.0332 6.43273 22.3443 6.55263 22.6347C6.67252 22.925 6.84842 23.1888 7.0703 23.4112C7.29218 23.6335 7.55567 23.8099 7.84575 23.9304C8.13582 24.0509 8.44679 24.1131 8.76089 24.1134C9.07499 24.1131 9.38596 24.0509 9.67603 23.9304C9.96611 23.8099 10.2296 23.6335 10.4515 23.4112C10.6734 23.1888 10.8493 22.925 10.9692 22.6347C11.089 22.3443 11.1506 22.0332 11.1502 21.7191V15.3356C11.1506 15.0215 11.089 14.7104 10.9692 14.4201C10.8493 14.1298 10.6734 13.8659 10.4515 13.6436C10.2296 13.4212 9.96611 13.2448 9.67603 13.1243C9.38596 13.0038 9.07499 12.9417 8.76089 12.9414C8.44679 12.9417 8.13582 13.0038 7.84575 13.1243C7.55567 13.2448 7.29218 13.4212 7.0703 13.6436C6.84842 13.8659 6.67252 14.1298 6.55263 14.4201C6.43273 14.7104 6.37121 15.0215 6.37156 15.3356" fill="#E01E5A"></path></svg>