<?xml version="1.0" encoding="UTF-8" standalone="no"?>
<!DOCTYPE svg PUBLIC "-//W3C//DTD SVG 1.1//EN" "http://www.w3.org/Graphics/SVG/1.1/DTD/svg11.dtd">
<svg width="100%" height="100%" viewBox="0 0 877 542" version="1.1" xmlns="http://www.w3.org/2000/svg" xmlns:xlink="http://www.w3.org/1999/xlink" xml:space="preserve" xmlns:serif="http://www.serif.com/" style="fill-rule:evenodd;clip-rule:evenodd;stroke-miterlimit:10;">
    <g transform="matrix(0,1,-1,0,474.5,79.5)">
        <path d="M-20,277L415,277" style="fill:none;fill-rule:nonzero;stroke:white;stroke-width:1px;"/>
    </g>
    <g transform="matrix(0,1,-1,0,605.5,-51.5)">
        <path d="M111,277L546,277" style="fill:none;fill-rule:nonzero;stroke:rgb(118,118,118);stroke-width:1px;"/>
    </g>
    <g transform="matrix(0,1,-1,0,735.5,-181.5)">
        <path d="M241,277L676,277" style="fill:none;fill-rule:nonzero;stroke:rgb(118,118,118);stroke-width:1px;"/>
    </g>
    <g transform="matrix(0,1,-1,0,866.5,-312.5)">
        <path d="M372,277L807,277" style="fill:none;fill-rule:nonzero;stroke:rgb(118,118,118);stroke-width:1px;"/>
    </g>
    <g transform="matrix(0,1,-1,0,996.5,-442.5)">
        <path d="M502,277L937,277" style="fill:none;fill-rule:nonzero;stroke:rgb(118,118,118);stroke-width:1px;"/>
    </g>
    <g transform="matrix(0,1,-1,0,1126.5,-572.5)">
        <path d="M632,277L1067,277" style="fill:none;fill-rule:nonzero;stroke:rgb(118,118,118);stroke-width:1px;"/>
    </g>
    <g>
        <clipPath id="_clip1">
            <rect x="197.66" y="59.167" width="652.24" height="435.733" clip-rule="nonzero"/>
        </clipPath>
        <g clip-path="url(#_clip1)">
            <g transform="matrix(0,1,1,0,398,0)">
                <path d="M73,-201L68,-201L68,-199L69,-199L68,-199C68,-197.895 68.895,-197 70,-197L70,-198L70,-197L72,-197L72,-198L72,-197C73.105,-197 74,-197.895 74,-199L73,-199L74,-199L74,-201L73,-201M73,-199L73,-200L72,-200L72,-199L70,-199L70,-200L69,-200L69,-199L73,-199Z" style="fill-opacity:0;fill-rule:nonzero;"/>
            </g>
            <g transform="matrix(0,1,1,0,398,0)">
                <path d="M73,-200L69,-200L69,-199C69,-198.448 69.448,-198 70,-198L72,-198C72.552,-198 73,-198.448 73,-199L73,-200Z" style="fill:rgb(66,133,244);fill-rule:nonzero;"/>
            </g>
            <g transform="matrix(0,1,1,0,424,0)">
                <path d="M100,-227L95,-227L95,-200L96,-200L95,-200C95,-198.343 96.343,-197 98,-197L98,-198L98,-197C99.657,-197 101,-198.343 101,-200L100,-200L101,-200L101,-227L100,-227M100,-225L100,-226L99,-226L99,-200C99,-199.448 98.552,-199 98,-199C97.448,-199 97,-199.448 97,-200L97,-226L96,-226L96,-225L100,-225Z" style="fill-opacity:0;fill-rule:nonzero;"/>
            </g>
            <g transform="matrix(0,1,1,0,424,0)">
                <path d="M100,-226L96,-226L96,-200C96,-198.895 96.895,-198 98,-198C99.105,-198 100,-198.895 100,-200L100,-226Z" style="fill:rgb(66,133,244);fill-rule:nonzero;"/>
            </g>
            <g transform="matrix(0,1,1,0,441,0)">
                <path d="M126,-244L121,-244L121,-200L122,-200L121,-200C121,-198.343 122.343,-197 124,-197L124,-198L124,-197C125.657,-197 127,-198.343 127,-200L126,-200L127,-200L127,-244L126,-244M126,-242L126,-243L125,-243L125,-200C125,-199.448 124.552,-199 124,-199C123.448,-199 123,-199.448 123,-200L123,-243L122,-243L122,-242L126,-242Z" style="fill-opacity:0;fill-rule:nonzero;"/>
            </g>
            <g transform="matrix(0,1,1,0,441,0)">
                <path d="M126,-243L122,-243L122,-200C122,-198.895 122.895,-198 124,-198C125.105,-198 126,-198.895 126,-200L126,-243Z" style="fill:rgb(66,133,244);fill-rule:nonzero;"/>
            </g>
            <g transform="matrix(0,1,1,0,495,0)">
                <path d="M153,-298L148,-298L148,-200L149,-200L148,-200C148,-198.343 149.343,-197 151,-197L151,-198L151,-197C152.657,-197 154,-198.343 154,-200L153,-200L154,-200L154,-298L153,-298M153,-296L153,-297L152,-297L152,-200C152,-199.448 151.552,-199 151,-199C150.448,-199 150,-199.448 150,-200L150,-297L149,-297L149,-296L153,-296Z" style="fill-opacity:0;fill-rule:nonzero;"/>
            </g>
            <g transform="matrix(0,1,1,0,495,0)">
                <path d="M153,-297L149,-297L149,-200C149,-198.895 149.895,-198 151,-198C152.105,-198 153,-198.895 153,-200L153,-297Z" style="fill:rgb(66,133,244);fill-rule:nonzero;"/>
            </g>
            <g transform="matrix(0,1,1,0,745,0)">
                <path d="M180,-548L175,-548L175,-200L176,-200L175,-200C175,-198.343 176.343,-197 178,-197L178,-198L178,-197C179.657,-197 181,-198.343 181,-200L180,-200L181,-200L181,-548L180,-548M180,-546L180,-547L179,-547L179,-200C179,-199.448 178.552,-199 178,-199C177.448,-199 177,-199.448 177,-200L177,-547L176,-547L176,-546L180,-546Z" style="fill-opacity:0;fill-rule:nonzero;"/>
            </g>
            <g transform="matrix(0,1,1,0,745,0)">
                <path d="M180,-547L176,-547L176,-200C176,-198.895 176.895,-198 178,-198C179.105,-198 180,-198.895 180,-200L180,-547Z" style="fill:rgb(66,133,244);fill-rule:nonzero;"/>
            </g>
            <g transform="matrix(0,1,1,0,405,0)">
                <path d="M206,-208L201,-208L201,-200L202,-200L201,-200C201,-198.343 202.343,-197 204,-197L204,-198L204,-197C205.657,-197 207,-198.343 207,-200L206,-200L207,-200L207,-208L206,-208M206,-206L206,-207L205,-207L205,-200C205,-199.448 204.552,-199 204,-199C203.448,-199 203,-199.448 203,-200L203,-207L202,-207L202,-206L206,-206Z" style="fill-opacity:0;fill-rule:nonzero;"/>
            </g>
            <g transform="matrix(0,1,1,0,405,0)">
                <path d="M206,-207L202,-207L202,-200C202,-198.895 202.895,-198 204,-198C205.105,-198 206,-198.895 206,-200L206,-207Z" style="fill:rgb(66,133,244);fill-rule:nonzero;"/>
            </g>
            <g transform="matrix(0,1,1,0,409,0)">
                <path d="M233,-212L228,-212L228,-200L229,-200L228,-200C228,-198.343 229.343,-197 231,-197L231,-198L231,-197C232.657,-197 234,-198.343 234,-200L233,-200L234,-200L234,-212L233,-212M233,-210L233,-211L232,-211L232,-200C232,-199.448 231.552,-199 231,-199C230.448,-199 230,-199.448 230,-200L230,-211L229,-211L229,-210L233,-210Z" style="fill-opacity:0;fill-rule:nonzero;"/>
            </g>
            <g transform="matrix(0,1,1,0,409,0)">
                <path d="M233,-211L229,-211L229,-200C229,-198.895 229.895,-198 231,-198C232.105,-198 233,-198.895 233,-200L233,-211Z" style="fill:rgb(66,133,244);fill-rule:nonzero;"/>
            </g>
            <g transform="matrix(0,1,1,0,419,0)">
                <path d="M260,-222L255,-222L255,-200L256,-200L255,-200C255,-198.343 256.343,-197 258,-197L258,-198L258,-197C259.657,-197 261,-198.343 261,-200L260,-200L261,-200L261,-222L260,-222M260,-220L260,-221L259,-221L259,-200C259,-199.448 258.552,-199 258,-199C257.448,-199 257,-199.448 257,-200L257,-221L256,-221L256,-220L260,-220Z" style="fill-opacity:0;fill-rule:nonzero;"/>
            </g>
            <g transform="matrix(0,1,1,0,419,0)">
                <path d="M260,-221L256,-221L256,-200C256,-198.895 256.895,-198 258,-198C259.105,-198 260,-198.895 260,-200L260,-221Z" style="fill:rgb(66,133,244);fill-rule:nonzero;"/>
            </g>
            <g transform="matrix(0,1,1,0,457,0)">
                <path d="M286,-260L281,-260L281,-200L282,-200L281,-200C281,-198.343 282.343,-197 284,-197L284,-198L284,-197C285.657,-197 287,-198.343 287,-200L286,-200L287,-200L287,-260L286,-260M286,-258L286,-259L285,-259L285,-200C285,-199.448 284.552,-199 284,-199C283.448,-199 283,-199.448 283,-200L283,-259L282,-259L282,-258L286,-258Z" style="fill-opacity:0;fill-rule:nonzero;"/>
            </g>
            <g transform="matrix(0,1,1,0,457,0)">
                <path d="M286,-259L282,-259L282,-200C282,-198.895 282.895,-198 284,-198C285.105,-198 286,-198.895 286,-200L286,-259Z" style="fill:rgb(66,133,244);fill-rule:nonzero;"/>
            </g>
            <g transform="matrix(0,1,1,0,437,0)">
                <path d="M313,-240L308,-240L308,-200L309,-200L308,-200C308,-198.343 309.343,-197 311,-197L311,-198L311,-197C312.657,-197 314,-198.343 314,-200L313,-200L314,-200L314,-240L313,-240M313,-238L313,-239L312,-239L312,-200C312,-199.448 311.552,-199 311,-199C310.448,-199 310,-199.448 310,-200L310,-239L309,-239L309,-238L313,-238Z" style="fill-opacity:0;fill-rule:nonzero;"/>
            </g>
            <g transform="matrix(0,1,1,0,437,0)">
                <path d="M313,-239L309,-239L309,-200C309,-198.895 309.895,-198 311,-198C312.105,-198 313,-198.895 313,-200L313,-239Z" style="fill:rgb(66,133,244);fill-rule:nonzero;"/>
            </g>
            <g transform="matrix(0,1,1,0,424,0)">
                <path d="M340,-227L335,-227L335,-200L336,-200L335,-200C335,-198.343 336.343,-197 338,-197L338,-198L338,-197C339.657,-197 341,-198.343 341,-200L340,-200L341,-200L341,-227L340,-227M340,-225L340,-226L339,-226L339,-200C339,-199.448 338.552,-199 338,-199C337.448,-199 337,-199.448 337,-200L337,-226L336,-226L336,-225L340,-225Z" style="fill-opacity:0;fill-rule:nonzero;"/>
            </g>
            <g transform="matrix(0,1,1,0,424,0)">
                <path d="M340,-226L336,-226L336,-200C336,-198.895 336.895,-198 338,-198C339.105,-198 340,-198.895 340,-200L340,-226Z" style="fill:rgb(66,133,244);fill-rule:nonzero;"/>
            </g>
            <g transform="matrix(0,1,1,0,409,0)">
                <path d="M366,-212L361,-212L361,-200L362,-200L361,-200C361,-198.343 362.343,-197 364,-197L364,-198L364,-197C365.657,-197 367,-198.343 367,-200L366,-200L367,-200L367,-212L366,-212M366,-210L366,-211L365,-211L365,-200C365,-199.448 364.552,-199 364,-199C363.448,-199 363,-199.448 363,-200L363,-211L362,-211L362,-210L366,-210Z" style="fill-opacity:0;fill-rule:nonzero;"/>
            </g>
            <g transform="matrix(0,1,1,0,409,0)">
                <path d="M366,-211L362,-211L362,-200C362,-198.895 362.895,-198 364,-198C365.105,-198 366,-198.895 366,-200L366,-211Z" style="fill:rgb(66,133,244);fill-rule:nonzero;"/>
            </g>
            <g transform="matrix(0,1,1,0,418,0)">
                <path d="M393,-221L388,-221L388,-200L389,-200L388,-200C388,-198.343 389.343,-197 391,-197L391,-198L391,-197C392.657,-197 394,-198.343 394,-200L393,-200L394,-200L394,-221L393,-221M393,-219L393,-220L392,-220L392,-200C392,-199.448 391.552,-199 391,-199C390.448,-199 390,-199.448 390,-200L390,-220L389,-220L389,-219L393,-219Z" style="fill-opacity:0;fill-rule:nonzero;"/>
            </g>
            <g transform="matrix(0,1,1,0,418,0)">
                <path d="M393,-220L389,-220L389,-200C389,-198.895 389.895,-198 391,-198C392.105,-198 393,-198.895 393,-200L393,-220Z" style="fill:rgb(66,133,244);fill-rule:nonzero;"/>
            </g>
            <g transform="matrix(0,1,1,0,418,0)">
                <path d="M420,-221L415,-221L415,-200L416,-200L415,-200C415,-198.343 416.343,-197 418,-197L418,-198L418,-197C419.657,-197 421,-198.343 421,-200L420,-200L421,-200L421,-221L420,-221M420,-219L420,-220L419,-220L419,-200C419,-199.448 418.552,-199 418,-199C417.448,-199 417,-199.448 417,-200L417,-220L416,-220L416,-219L420,-219Z" style="fill-opacity:0;fill-rule:nonzero;"/>
            </g>
            <g transform="matrix(0,1,1,0,418,0)">
                <path d="M420,-220L416,-220L416,-200C416,-198.895 416.895,-198 418,-198C419.105,-198 420,-198.895 420,-200L420,-220Z" style="fill:rgb(66,133,244);fill-rule:nonzero;"/>
            </g>
            <g transform="matrix(0,1,1,0,406,0)">
                <path d="M446,-209L441,-209L441,-200L442,-200L441,-200C441,-198.343 442.343,-197 444,-197L444,-198L444,-197C445.657,-197 447,-198.343 447,-200L446,-200L447,-200L447,-209L446,-209M446,-207L446,-208L445,-208L445,-200C445,-199.448 444.552,-199 444,-199C443.448,-199 443,-199.448 443,-200L443,-208L442,-208L442,-207L446,-207Z" style="fill-opacity:0;fill-rule:nonzero;"/>
            </g>
            <g transform="matrix(0,1,1,0,406,0)">
                <path d="M446,-208L442,-208L442,-200C442,-198.895 442.895,-198 444,-198C445.105,-198 446,-198.895 446,-200L446,-208Z" style="fill:rgb(66,133,244);fill-rule:nonzero;"/>
            </g>
            <g transform="matrix(0,1,1,0,397,0)">
                <path d="M473,-200L468,-200L468,-198.5L469,-198.5L468,-198.5C468,-197.672 468.672,-197 469.5,-197L469.5,-198L469.5,-197L472.5,-197L472.5,-198L472.5,-197C473.328,-197 474,-197.672 474,-198.5L473,-198.5L474,-198.5L474,-200L473,-200M473,-198L473,-199L472,-199L472,-198.5C472,-198.776 472.224,-199 472.5,-199L469.5,-199C469.776,-199 470,-198.776 470,-198.5L470,-199L469,-199L469,-198L473,-198Z" style="fill-opacity:0;fill-rule:nonzero;"/>
            </g>
            <g transform="matrix(0,1,1,0,397,0)">
                <path d="M473,-199L469,-199L469,-198.5C469,-198.224 469.224,-198 469.5,-198L472.5,-198C472.776,-198 473,-198.224 473,-198.5L473,-199Z" style="fill:rgb(66,133,244);fill-rule:nonzero;"/>
            </g>
            <g>
                <clipPath id="_clip2">
                    <rect x="197.66" y="59.167" width="652.24" height="435.733" clip-rule="nonzero"/>
                </clipPath>
                <g clip-path="url(#_clip2)">
                    <g transform="matrix(0,1,1,0,771,0)">
                        <path d="M79,-574L74,-574L74,-200L75,-200L74,-200C74,-198.343 75.343,-197 77,-197L77,-198L77,-197C78.657,-197 80,-198.343 80,-200L79,-200L80,-200L80,-574L79,-574M79,-572L79,-573L78,-573L78,-200C78,-199.448 77.552,-199 77,-199C76.448,-199 76,-199.448 76,-200L76,-573L75,-573L75,-572L79,-572Z" style="fill-opacity:0;fill-rule:nonzero;"/>
                    </g>
                    <g transform="matrix(0,1,1,0,771,0)">
                        <path d="M79,-573L75,-573L75,-200C75,-198.895 75.895,-198 77,-198C78.105,-198 79,-198.895 79,-200L79,-573Z" style="fill:rgb(234,67,53);fill-rule:nonzero;"/>
                    </g>
                    <g transform="matrix(0,1,1,0,420,0)">
                        <path d="M106,-223L101,-223L101,-200L102,-200L101,-200C101,-198.343 102.343,-197 104,-197L104,-198L104,-197C105.657,-197 107,-198.343 107,-200L106,-200L107,-200L107,-223L106,-223M106,-221L106,-222L105,-222L105,-200C105,-199.448 104.552,-199 104,-199C103.448,-199 103,-199.448 103,-200L103,-222L102,-222L102,-221L106,-221Z" style="fill-opacity:0;fill-rule:nonzero;"/>
                    </g>
                    <g transform="matrix(0,1,1,0,420,0)">
                        <path d="M106,-222L102,-222L102,-200C102,-198.895 102.895,-198 104,-198C105.105,-198 106,-198.895 106,-200L106,-222Z" style="fill:rgb(234,67,53);fill-rule:nonzero;"/>
                    </g>
                    <g transform="matrix(0,1,1,0,448,0)">
                        <path d="M132,-251L127,-251L127,-200L128,-200L127,-200C127,-198.343 128.343,-197 130,-197L130,-198L130,-197C131.657,-197 133,-198.343 133,-200L132,-200L133,-200L133,-251L132,-251M132,-249L132,-250L131,-250L131,-200C131,-199.448 130.552,-199 130,-199C129.448,-199 129,-199.448 129,-200L129,-250L128,-250L128,-249L132,-249Z" style="fill-opacity:0;fill-rule:nonzero;"/>
                    </g>
                    <g transform="matrix(0,1,1,0,448,0)">
                        <path d="M132,-250L128,-250L128,-200C128,-198.895 128.895,-198 130,-198C131.105,-198 132,-198.895 132,-200L132,-250Z" style="fill:rgb(234,67,53);fill-rule:nonzero;"/>
                    </g>
                    <g transform="matrix(0,1,1,0,497,0)">
                        <path d="M159,-300L154,-300L154,-200L155,-200L154,-200C154,-198.343 155.343,-197 157,-197L157,-198L157,-197C158.657,-197 160,-198.343 160,-200L159,-200L160,-200L160,-300L159,-300M159,-298L159,-299L158,-299L158,-200C158,-199.448 157.552,-199 157,-199C156.448,-199 156,-199.448 156,-200L156,-299L155,-299L155,-298L159,-298Z" style="fill-opacity:0;fill-rule:nonzero;"/>
                    </g>
                    <g transform="matrix(0,1,1,0,497,0)">
                        <path d="M159,-299L155,-299L155,-200C155,-198.895 155.895,-198 157,-198C158.105,-198 159,-198.895 159,-200L159,-299Z" style="fill:rgb(234,67,53);fill-rule:nonzero;"/>
                    </g>
                    <g transform="matrix(0,1,1,0,955,0)">
                        <path d="M186,-758L181,-758L181,-200L182,-200L181,-200C181,-198.343 182.343,-197 184,-197L184,-198L184,-197C185.657,-197 187,-198.343 187,-200L186,-200L187,-200L187,-758L186,-758M186,-756L186,-757L185,-757L185,-200C185,-199.448 184.552,-199 184,-199C183.448,-199 183,-199.448 183,-200L183,-757L182,-757L182,-756L186,-756Z" style="fill-opacity:0;fill-rule:nonzero;"/>
                    </g>
                    <g transform="matrix(0,1,1,0,955,0)">
                        <path d="M186,-757L182,-757L182,-200C182,-198.895 182.895,-198 184,-198C185.105,-198 186,-198.895 186,-200L186,-757Z" style="fill:rgb(234,67,53);fill-rule:nonzero;"/>
                    </g>
                    <g transform="matrix(0,1,1,0,410,0)">
                        <path d="M212,-213L207,-213L207,-200L208,-200L207,-200C207,-198.343 208.343,-197 210,-197L210,-198L210,-197C211.657,-197 213,-198.343 213,-200L212,-200L213,-200L213,-213L212,-213M212,-211L212,-212L211,-212L211,-200C211,-199.448 210.552,-199 210,-199C209.448,-199 209,-199.448 209,-200L209,-212L208,-212L208,-211L212,-211Z" style="fill-opacity:0;fill-rule:nonzero;"/>
                    </g>
                    <g transform="matrix(0,1,1,0,410,0)">
                        <path d="M212,-212L208,-212L208,-200C208,-198.895 208.895,-198 210,-198C211.105,-198 212,-198.895 212,-200L212,-212Z" style="fill:rgb(234,67,53);fill-rule:nonzero;"/>
                    </g>
                    <g transform="matrix(0,1,1,0,409,0)">
                        <path d="M239,-212L234,-212L234,-200L235,-200L234,-200C234,-198.343 235.343,-197 237,-197L237,-198L237,-197C238.657,-197 240,-198.343 240,-200L239,-200L240,-200L240,-212L239,-212M239,-210L239,-211L238,-211L238,-200C238,-199.448 237.552,-199 237,-199C236.448,-199 236,-199.448 236,-200L236,-211L235,-211L235,-210L239,-210Z" style="fill-opacity:0;fill-rule:nonzero;"/>
                    </g>
                    <g transform="matrix(0,1,1,0,409,0)">
                        <path d="M239,-211L235,-211L235,-200C235,-198.895 235.895,-198 237,-198C238.105,-198 239,-198.895 239,-200L239,-211Z" style="fill:rgb(234,67,53);fill-rule:nonzero;"/>
                    </g>
                    <g transform="matrix(0,1,1,0,423,0)">
                        <path d="M266,-226L261,-226L261,-200L262,-200L261,-200C261,-198.343 262.343,-197 264,-197L264,-198L264,-197C265.657,-197 267,-198.343 267,-200L266,-200L267,-200L267,-226L266,-226M266,-224L266,-225L265,-225L265,-200C265,-199.448 264.552,-199 264,-199C263.448,-199 263,-199.448 263,-200L263,-225L262,-225L262,-224L266,-224Z" style="fill-opacity:0;fill-rule:nonzero;"/>
                    </g>
                    <g transform="matrix(0,1,1,0,423,0)">
                        <path d="M266,-225L262,-225L262,-200C262,-198.895 262.895,-198 264,-198C265.105,-198 266,-198.895 266,-200L266,-225Z" style="fill:rgb(234,67,53);fill-rule:nonzero;"/>
                    </g>
                    <g transform="matrix(0,1,1,0,469,0)">
                        <path d="M292,-272L287,-272L287,-200L288,-200L287,-200C287,-198.343 288.343,-197 290,-197L290,-198L290,-197C291.657,-197 293,-198.343 293,-200L292,-200L293,-200L293,-272L292,-272M292,-270L292,-271L291,-271L291,-200C291,-199.448 290.552,-199 290,-199C289.448,-199 289,-199.448 289,-200L289,-271L288,-271L288,-270L292,-270Z" style="fill-opacity:0;fill-rule:nonzero;"/>
                    </g>
                    <g transform="matrix(0,1,1,0,469,0)">
                        <path d="M292,-271L288,-271L288,-200C288,-198.895 288.895,-198 290,-198C291.105,-198 292,-198.895 292,-200L292,-271Z" style="fill:rgb(234,67,53);fill-rule:nonzero;"/>
                    </g>
                    <g transform="matrix(0,1,1,0,449,0)">
                        <path d="M319,-252L314,-252L314,-200L315,-200L314,-200C314,-198.343 315.343,-197 317,-197L317,-198L317,-197C318.657,-197 320,-198.343 320,-200L319,-200L320,-200L320,-252L319,-252M319,-250L319,-251L318,-251L318,-200C318,-199.448 317.552,-199 317,-199C316.448,-199 316,-199.448 316,-200L316,-251L315,-251L315,-250L319,-250Z" style="fill-opacity:0;fill-rule:nonzero;"/>
                    </g>
                    <g transform="matrix(0,1,1,0,449,0)">
                        <path d="M319,-251L315,-251L315,-200C315,-198.895 315.895,-198 317,-198C318.105,-198 319,-198.895 319,-200L319,-251Z" style="fill:rgb(234,67,53);fill-rule:nonzero;"/>
                    </g>
                    <g transform="matrix(0,1,1,0,431,0)">
                        <path d="M346,-234L341,-234L341,-200L342,-200L341,-200C341,-198.343 342.343,-197 344,-197L344,-198L344,-197C345.657,-197 347,-198.343 347,-200L346,-200L347,-200L347,-234L346,-234M346,-232L346,-233L345,-233L345,-200C345,-199.448 344.552,-199 344,-199C343.448,-199 343,-199.448 343,-200L343,-233L342,-233L342,-232L346,-232Z" style="fill-opacity:0;fill-rule:nonzero;"/>
                    </g>
                    <g transform="matrix(0,1,1,0,431,0)">
                        <path d="M346,-233L342,-233L342,-200C342,-198.895 342.895,-198 344,-198C345.105,-198 346,-198.895 346,-200L346,-233Z" style="fill:rgb(234,67,53);fill-rule:nonzero;"/>
                    </g>
                    <g transform="matrix(0,1,1,0,426,0)">
                        <path d="M372,-229L367,-229L367,-200L368,-200L367,-200C367,-198.343 368.343,-197 370,-197L370,-198L370,-197C371.657,-197 373,-198.343 373,-200L372,-200L373,-200L373,-229L372,-229M372,-227L372,-228L371,-228L371,-200C371,-199.448 370.552,-199 370,-199C369.448,-199 369,-199.448 369,-200L369,-228L368,-228L368,-227L372,-227Z" style="fill-opacity:0;fill-rule:nonzero;"/>
                    </g>
                    <g transform="matrix(0,1,1,0,426,0)">
                        <path d="M372,-228L368,-228L368,-200C368,-198.895 368.895,-198 370,-198C371.105,-198 372,-198.895 372,-200L372,-228Z" style="fill:rgb(234,67,53);fill-rule:nonzero;"/>
                    </g>
                    <g transform="matrix(0,1,1,0,423,0)">
                        <path d="M399,-226L394,-226L394,-200L395,-200L394,-200C394,-198.343 395.343,-197 397,-197L397,-198L397,-197C398.657,-197 400,-198.343 400,-200L399,-200L400,-200L400,-226L399,-226M399,-224L399,-225L398,-225L398,-200C398,-199.448 397.552,-199 397,-199C396.448,-199 396,-199.448 396,-200L396,-225L395,-225L395,-224L399,-224Z" style="fill-opacity:0;fill-rule:nonzero;"/>
                    </g>
                    <g transform="matrix(0,1,1,0,423,0)">
                        <path d="M399,-225L395,-225L395,-200C395,-198.895 395.895,-198 397,-198C398.105,-198 399,-198.895 399,-200L399,-225Z" style="fill:rgb(234,67,53);fill-rule:nonzero;"/>
                    </g>
                    <g transform="matrix(0,1,1,0,423,0)">
                        <path d="M426,-226L421,-226L421,-200L422,-200L421,-200C421,-198.343 422.343,-197 424,-197L424,-198L424,-197C425.657,-197 427,-198.343 427,-200L426,-200L427,-200L427,-226L426,-226M426,-224L426,-225L425,-225L425,-200C425,-199.448 424.552,-199 424,-199C423.448,-199 423,-199.448 423,-200L423,-225L422,-225L422,-224L426,-224Z" style="fill-opacity:0;fill-rule:nonzero;"/>
                    </g>
                    <g transform="matrix(0,1,1,0,423,0)">
                        <path d="M426,-225L422,-225L422,-200C422,-198.895 422.895,-198 424,-198C425.105,-198 426,-198.895 426,-200L426,-225Z" style="fill:rgb(234,67,53);fill-rule:nonzero;"/>
                    </g>
                    <g transform="matrix(0,1,1,0,409,0)">
                        <path d="M452,-212L447,-212L447,-200L448,-200L447,-200C447,-198.343 448.343,-197 450,-197L450,-198L450,-197C451.657,-197 453,-198.343 453,-200L452,-200L453,-200L453,-212L452,-212M452,-210L452,-211L451,-211L451,-200C451,-199.448 450.552,-199 450,-199C449.448,-199 449,-199.448 449,-200L449,-211L448,-211L448,-210L452,-210Z" style="fill-opacity:0;fill-rule:nonzero;"/>
                    </g>
                    <g transform="matrix(0,1,1,0,409,0)">
                        <path d="M452,-211L448,-211L448,-200C448,-198.895 448.895,-198 450,-198C451.105,-198 452,-198.895 452,-200L452,-211Z" style="fill:rgb(234,67,53);fill-rule:nonzero;"/>
                    </g>
                    <g transform="matrix(0,1,1,0,400,0)">
                        <path d="M479,-203L474,-203L474,-200L475,-200L474,-200C474,-198.343 475.343,-197 477,-197L477,-198L477,-197C478.657,-197 480,-198.343 480,-200L479,-200L480,-200L480,-203L479,-203M479,-201L479,-202L478,-202L478,-200C478,-199.448 477.552,-199 477,-199C476.448,-199 476,-199.448 476,-200L476,-202L475,-202L475,-201L479,-201Z" style="fill-opacity:0;fill-rule:nonzero;"/>
                    </g>
                    <g transform="matrix(0,1,1,0,400,0)">
                        <path d="M479,-202L475,-202L475,-200C475,-198.895 475.895,-198 477,-198C478.105,-198 479,-198.895 479,-200L479,-202Z" style="fill:rgb(234,67,53);fill-rule:nonzero;"/>
                    </g>
                </g>
            </g>
            <g>
                <clipPath id="_clip3">
                    <rect x="197.66" y="59.167" width="652.24" height="435.733" clip-rule="nonzero"/>
                </clipPath>
                <g clip-path="url(#_clip3)">
                    <g transform="matrix(0,1,1,0,405,0)">
                        <path d="M85,-208L80,-208L80,-200L81,-200L80,-200C80,-198.343 81.343,-197 83,-197L83,-198L83,-197C84.657,-197 86,-198.343 86,-200L85,-200L86,-200L86,-208L85,-208M85,-206L85,-207L84,-207L84,-200C84,-199.448 83.552,-199 83,-199C82.448,-199 82,-199.448 82,-200L82,-207L81,-207L81,-206L85,-206Z" style="fill-opacity:0;fill-rule:nonzero;"/>
                    </g>
                    <g transform="matrix(0,1,1,0,405,0)">
                        <path d="M85,-207L81,-207L81,-200C81,-198.895 81.895,-198 83,-198C84.105,-198 85,-198.895 85,-200L85,-207Z" style="fill:rgb(251,188,4);fill-rule:nonzero;"/>
                    </g>
                    <g transform="matrix(0,1,1,0,544,0)">
                        <path d="M112,-347L107,-347L107,-200L108,-200L107,-200C107,-198.343 108.343,-197 110,-197L110,-198L110,-197C111.657,-197 113,-198.343 113,-200L112,-200L113,-200L113,-347L112,-347M112,-345L112,-346L111,-346L111,-200C111,-199.448 110.552,-199 110,-199C109.448,-199 109,-199.448 109,-200L109,-346L108,-346L108,-345L112,-345Z" style="fill-opacity:0;fill-rule:nonzero;"/>
                    </g>
                    <g transform="matrix(0,1,1,0,544,0)">
                        <path d="M112,-346L108,-346L108,-200C108,-198.895 108.895,-198 110,-198C111.105,-198 112,-198.895 112,-200L112,-346Z" style="fill:rgb(251,188,4);fill-rule:nonzero;"/>
                    </g>
                    <g transform="matrix(0,1,1,0,895,0)">
                        <path d="M138,-698L133,-698L133,-200L134,-200L133,-200C133,-198.343 134.343,-197 136,-197L136,-198L136,-197C137.657,-197 139,-198.343 139,-200L138,-200L139,-200L139,-698L138,-698M138,-696L138,-697L137,-697L137,-200C137,-199.448 136.552,-199 136,-199C135.448,-199 135,-199.448 135,-200L135,-697L134,-697L134,-696L138,-696Z" style="fill-opacity:0;fill-rule:nonzero;"/>
                    </g>
                    <g transform="matrix(0,1,1,0,895,0)">
                        <path d="M138,-697L134,-697L134,-200C134,-198.895 134.895,-198 136,-198C137.105,-198 138,-198.895 138,-200L138,-697Z" style="fill:rgb(251,188,4);fill-rule:nonzero;"/>
                    </g>
                    <g transform="matrix(0,1,1,0,518,0)">
                        <path d="M165,-321L160,-321L160,-200L161,-200L160,-200C160,-198.343 161.343,-197 163,-197L163,-198L163,-197C164.657,-197 166,-198.343 166,-200L165,-200L166,-200L166,-321L165,-321M165,-319L165,-320L164,-320L164,-200C164,-199.448 163.552,-199 163,-199C162.448,-199 162,-199.448 162,-200L162,-320L161,-320L161,-319L165,-319Z" style="fill-opacity:0;fill-rule:nonzero;"/>
                    </g>
                    <g transform="matrix(0,1,1,0,518,0)">
                        <path d="M165,-320L161,-320L161,-200C161,-198.895 161.895,-198 163,-198C164.105,-198 165,-198.895 165,-200L165,-320Z" style="fill:rgb(251,188,4);fill-rule:nonzero;"/>
                    </g>
                    <g transform="matrix(0,1,1,0,734,0)">
                        <path d="M192,-537L187,-537L187,-200L188,-200L187,-200C187,-198.343 188.343,-197 190,-197L190,-198L190,-197C191.657,-197 193,-198.343 193,-200L192,-200L193,-200L193,-537L192,-537M192,-535L192,-536L191,-536L191,-200C191,-199.448 190.552,-199 190,-199C189.448,-199 189,-199.448 189,-200L189,-536L188,-536L188,-535L192,-535Z" style="fill-opacity:0;fill-rule:nonzero;"/>
                    </g>
                    <g transform="matrix(0,1,1,0,734,0)">
                        <path d="M192,-536L188,-536L188,-200C188,-198.895 188.895,-198 190,-198C191.105,-198 192,-198.895 192,-200L192,-536Z" style="fill:rgb(251,188,4);fill-rule:nonzero;"/>
                    </g>
                    <g transform="matrix(0,1,1,0,409,0)">
                        <path d="M218,-212L213,-212L213,-200L214,-200L213,-200C213,-198.343 214.343,-197 216,-197L216,-198L216,-197C217.657,-197 219,-198.343 219,-200L218,-200L219,-200L219,-212L218,-212M218,-210L218,-211L217,-211L217,-200C217,-199.448 216.552,-199 216,-199C215.448,-199 215,-199.448 215,-200L215,-211L214,-211L214,-210L218,-210Z" style="fill-opacity:0;fill-rule:nonzero;"/>
                    </g>
                    <g transform="matrix(0,1,1,0,409,0)">
                        <path d="M218,-211L214,-211L214,-200C214,-198.895 214.895,-198 216,-198C217.105,-198 218,-198.895 218,-200L218,-211Z" style="fill:rgb(251,188,4);fill-rule:nonzero;"/>
                    </g>
                    <g transform="matrix(0,1,1,0,497,0)">
                        <path d="M245,-300L240,-300L240,-200L241,-200L240,-200C240,-198.343 241.343,-197 243,-197L243,-198L243,-197C244.657,-197 246,-198.343 246,-200L245,-200L246,-200L246,-300L245,-300M245,-298L245,-299L244,-299L244,-200C244,-199.448 243.552,-199 243,-199C242.448,-199 242,-199.448 242,-200L242,-299L241,-299L241,-298L245,-298Z" style="fill-opacity:0;fill-rule:nonzero;"/>
                    </g>
                    <g transform="matrix(0,1,1,0,497,0)">
                        <path d="M245,-299L241,-299L241,-200C241,-198.895 241.895,-198 243,-198C244.105,-198 245,-198.895 245,-200L245,-299Z" style="fill:rgb(251,188,4);fill-rule:nonzero;"/>
                    </g>
                    <g transform="matrix(0,1,1,0,457,0)">
                        <path d="M272,-260L267,-260L267,-200L268,-200L267,-200C267,-198.343 268.343,-197 270,-197L270,-198L270,-197C271.657,-197 273,-198.343 273,-200L272,-200L273,-200L273,-260L272,-260M272,-258L272,-259L271,-259L271,-200C271,-199.448 270.552,-199 270,-199C269.448,-199 269,-199.448 269,-200L269,-259L268,-259L268,-258L272,-258Z" style="fill-opacity:0;fill-rule:nonzero;"/>
                    </g>
                    <g transform="matrix(0,1,1,0,457,0)">
                        <path d="M272,-259L268,-259L268,-200C268,-198.895 268.895,-198 270,-198C271.105,-198 272,-198.895 272,-200L272,-259Z" style="fill:rgb(251,188,4);fill-rule:nonzero;"/>
                    </g>
                    <g transform="matrix(0,1,1,0,796,0)">
                        <path d="M298,-599L293,-599L293,-200L294,-200L293,-200C293,-198.343 294.343,-197 296,-197L296,-198L296,-197C297.657,-197 299,-198.343 299,-200L298,-200L299,-200L299,-599L298,-599M298,-597L298,-598L297,-598L297,-200C297,-199.448 296.552,-199 296,-199C295.448,-199 295,-199.448 295,-200L295,-598L294,-598L294,-597L298,-597Z" style="fill-opacity:0;fill-rule:nonzero;"/>
                    </g>
                    <g transform="matrix(0,1,1,0,796,0)">
                        <path d="M298,-598L294,-598L294,-200C294,-198.895 294.895,-198 296,-198C297.105,-198 298,-198.895 298,-200L298,-598Z" style="fill:rgb(251,188,4);fill-rule:nonzero;"/>
                    </g>
                    <g transform="matrix(0,1,1,0,938,0)">
                        <path d="M325,-741L320,-741L320,-200L321,-200L320,-200C320,-198.343 321.343,-197 323,-197L323,-198L323,-197C324.657,-197 326,-198.343 326,-200L325,-200L326,-200L326,-741L325,-741M325,-739L325,-740L324,-740L324,-200C324,-199.448 323.552,-199 323,-199C322.448,-199 322,-199.448 322,-200L322,-740L321,-740L321,-739L325,-739Z" style="fill-opacity:0;fill-rule:nonzero;"/>
                    </g>
                    <g transform="matrix(0,1,1,0,938,0)">
                        <path d="M325,-740L321,-740L321,-200C321,-198.895 321.895,-198 323,-198C324.105,-198 325,-198.895 325,-200L325,-740Z" style="fill:rgb(251,188,4);fill-rule:nonzero;"/>
                    </g>
                    <g transform="matrix(0,1,1,0,490,0)">
                        <path d="M352,-293L347,-293L347,-200L348,-200L347,-200C347,-198.343 348.343,-197 350,-197L350,-198L350,-197C351.657,-197 353,-198.343 353,-200L352,-200L353,-200L353,-293L352,-293M352,-291L352,-292L351,-292L351,-200C351,-199.448 350.552,-199 350,-199C349.448,-199 349,-199.448 349,-200L349,-292L348,-292L348,-291L352,-291Z" style="fill-opacity:0;fill-rule:nonzero;"/>
                    </g>
                    <g transform="matrix(0,1,1,0,490,0)">
                        <path d="M352,-292L348,-292L348,-200C348,-198.895 348.895,-198 350,-198C351.105,-198 352,-198.895 352,-200L352,-292Z" style="fill:rgb(251,188,4);fill-rule:nonzero;"/>
                    </g>
                    <g transform="matrix(0,1,1,0,405,0)">
                        <path d="M378,-208L373,-208L373,-200L374,-200L373,-200C373,-198.343 374.343,-197 376,-197L376,-198L376,-197C377.657,-197 379,-198.343 379,-200L378,-200L379,-200L379,-208L378,-208M378,-206L378,-207L377,-207L377,-200C377,-199.448 376.552,-199 376,-199C375.448,-199 375,-199.448 375,-200L375,-207L374,-207L374,-206L378,-206Z" style="fill-opacity:0;fill-rule:nonzero;"/>
                    </g>
                    <g transform="matrix(0,1,1,0,405,0)">
                        <path d="M378,-207L374,-207L374,-200C374,-198.895 374.895,-198 376,-198C377.105,-198 378,-198.895 378,-200L378,-207Z" style="fill:rgb(251,188,4);fill-rule:nonzero;"/>
                    </g>
                    <g transform="matrix(0,1,1,0,420,0)">
                        <path d="M405,-223L400,-223L400,-200L401,-200L400,-200C400,-198.343 401.343,-197 403,-197L403,-198L403,-197C404.657,-197 406,-198.343 406,-200L405,-200L406,-200L406,-223L405,-223M405,-221L405,-222L404,-222L404,-200C404,-199.448 403.552,-199 403,-199C402.448,-199 402,-199.448 402,-200L402,-222L401,-222L401,-221L405,-221Z" style="fill-opacity:0;fill-rule:nonzero;"/>
                    </g>
                    <g transform="matrix(0,1,1,0,420,0)">
                        <path d="M405,-222L401,-222L401,-200C401,-198.895 401.895,-198 403,-198C404.105,-198 405,-198.895 405,-200L405,-222Z" style="fill:rgb(251,188,4);fill-rule:nonzero;"/>
                    </g>
                    <g transform="matrix(0,1,1,0,458,0)">
                        <path d="M432,-261L427,-261L427,-200L428,-200L427,-200C427,-198.343 428.343,-197 430,-197L430,-198L430,-197C431.657,-197 433,-198.343 433,-200L432,-200L433,-200L433,-261L432,-261M432,-259L432,-260L431,-260L431,-200C431,-199.448 430.552,-199 430,-199C429.448,-199 429,-199.448 429,-200L429,-260L428,-260L428,-259L432,-259Z" style="fill-opacity:0;fill-rule:nonzero;"/>
                    </g>
                    <g transform="matrix(0,1,1,0,458,0)">
                        <path d="M432,-260L428,-260L428,-200C428,-198.895 428.895,-198 430,-198C431.105,-198 432,-198.895 432,-200L432,-260Z" style="fill:rgb(251,188,4);fill-rule:nonzero;"/>
                    </g>
                    <g transform="matrix(0,1,1,0,483,0)">
                        <path d="M458,-286L453,-286L453,-200L454,-200L453,-200C453,-198.343 454.343,-197 456,-197L456,-198L456,-197C457.657,-197 459,-198.343 459,-200L458,-200L459,-200L459,-286L458,-286M458,-284L458,-285L457,-285L457,-200C457,-199.448 456.552,-199 456,-199C455.448,-199 455,-199.448 455,-200L455,-285L454,-285L454,-284L458,-284Z" style="fill-opacity:0;fill-rule:nonzero;"/>
                    </g>
                    <g transform="matrix(0,1,1,0,483,0)">
                        <path d="M458,-285L454,-285L454,-200C454,-198.895 454.895,-198 456,-198C457.105,-198 458,-198.895 458,-200L458,-285Z" style="fill:rgb(251,188,4);fill-rule:nonzero;"/>
                    </g>
                    <g transform="matrix(0,1,1,0,401,0)">
                        <path d="M485,-204L480,-204L480,-200L481,-200L480,-200C480,-198.343 481.343,-197 483,-197L483,-198L483,-197C484.657,-197 486,-198.343 486,-200L485,-200L486,-200L486,-204L485,-204M485,-202L485,-203L484,-203L484,-200C484,-199.448 483.552,-199 483,-199C482.448,-199 482,-199.448 482,-200L482,-203L481,-203L481,-202L485,-202Z" style="fill-opacity:0;fill-rule:nonzero;"/>
                    </g>
                    <g transform="matrix(0,1,1,0,401,0)">
                        <path d="M485,-203L481,-203L481,-200C481,-198.895 481.895,-198 483,-198C484.105,-198 485,-198.895 485,-200L485,-203Z" style="fill:rgb(251,188,4);fill-rule:nonzero;"/>
                    </g>
                </g>
            </g>
        </g>
    </g>
    <g>
        <text x="69.66px" y="81.156px" style="font-family:'ArialMT', 'Arial', sans-serif;font-size:12px;fill:white;">Te<tspan x="83.653px " y="81.156px ">s</tspan>t 1: 1000 INSERT<tspan x="183.601px " y="81.156px ">s</tspan></text>
        <text x="39.66px" y="107.806px" style="font-family:'ArialMT', 'Arial', sans-serif;font-size:12px;fill:white;">Te<tspan x="53.654px " y="107.806px ">s</tspan>t 2: 25000 INSERT<tspan x="160.286px 166.281px " y="107.806px 107.806px ">s </tspan>in a</text>
        <text x="39.66px" y="134.456px" style="font-family:'ArialMT', 'Arial', sans-serif;font-size:12px;fill:white;">Te<tspan x="53.654px " y="134.456px ">s</tspan>t 3: 25000 INSERT<tspan x="160.281px 166.276px " y="134.456px 134.456px ">s </tspan>into</text>
        <text x="31.66px" y="161.106px" style="font-family:'ArialMT', 'Arial', sans-serif;font-size:12px;fill:white;">Te<tspan x="45.654px " y="161.106px ">s</tspan>t 4: 100 SELECTs<tspan x="147.617px " y="161.106px "> </tspan>without</text>
        <text x="46.66px" y="187.756px" style="font-family:'ArialMT', 'Arial', sans-serif;font-size:12px;fill:white;">Te<tspan x="60.654px " y="187.756px ">s</tspan>t 5: 100 SELECTs<tspan x="162.613px " y="187.756px "> </tspan>on a</text>
        <text x="55.66px" y="214.406px" style="font-family:'ArialMT', 'Arial', sans-serif;font-size:12px;fill:white;">Te<tspan x="69.657px " y="214.406px ">s</tspan>t 6: Creating an index</text>
        <text x="41.66px" y="241.056px" style="font-family:'ArialMT', 'Arial', sans-serif;font-size:12px;fill:white;">Te<tspan x="55.653px " y="241.056px ">s</tspan>t 7: 5000 SELECTs<tspan x="164.28px " y="241.056px "> </tspan>with</text>
        <text x="65.66px" y="267.706px" style="font-family:'ArialMT', 'Arial', sans-serif;font-size:12px;fill:white;">Te<tspan x="79.653px " y="267.706px ">s</tspan>t 8: 1000 UPDAT<tspan x="176.271px " y="267.706px ">E</tspan>s</text>
        <text x="33.66px" y="294.356px" style="font-family:'ArialMT', 'Arial', sans-serif;font-size:12px;fill:white;">Te<tspan x="47.654px " y="294.356px ">s</tspan>t 9: 25000 UPDAT<tspan x="150.95px " y="294.356px ">E</tspan>s with</text>
        <text x="30.66px" y="321.006px" style="font-family:'ArialMT', 'Arial', sans-serif;font-size:12px;fill:white;">Te<tspan x="44.653px " y="321.006px ">s</tspan>t 10: 25000 text U<tspan x="145.281px " y="321.006px ">P</tspan>DAT<tspan x="177.264px " y="321.006px ">E</tspan>s</text>
        <text x="55.66px" y="347.656px" style="font-family:'ArialMT', 'Arial', sans-serif;font-size:12px;fill:white;">Te<tspan x="69.653px " y="347.656px ">s</tspan>t 11<tspan x="95.642px " y="347.656px ">:</tspan> INSERT<tspan x="146.272px 152.267px " y="347.656px 347.656px ">s </tspan>from a</text>
        <text x="38.66px" y="374.306px" style="font-family:'ArialMT', 'Arial', sans-serif;font-size:12px;fill:white;">Te<tspan x="52.653px " y="374.306px ">s</tspan>t 12: DELETE witho<tspan x="163.26px " y="374.306px ">u</tspan>t an</text>
        <text x="55.66px" y="400.956px" style="font-family:'ArialMT', 'Arial', sans-serif;font-size:12px;fill:white;">Te<tspan x="69.652px " y="400.956px ">s</tspan>t 13: DELETE with<tspan x="173.589px " y="400.956px "> </tspan>an</text>
        <text x="33.66px" y="427.606px" style="font-family:'ArialMT', 'Arial', sans-serif;font-size:12px;fill:white;">Te<tspan x="47.653px " y="427.606px ">s</tspan>t 14: A<tspan x="88.295px 91.623px " y="427.606px 427.606px "> b</tspan>ig INSERT<tspan x="154.918px 158.246px " y="427.606px 427.606px "> a</tspan>fter a</text>
        <text x="67.66px" y="454.256px" style="font-family:'ArialMT', 'Arial', sans-serif;font-size:12px;fill:white;">Te<tspan x="81.653px " y="454.256px ">s</tspan>t 15: A<tspan x="122.295px 125.623px " y="454.256px 454.256px "> b</tspan>ig DELETE</text>
        <text x="69.66px" y="480.906px" style="font-family:'ArialMT', 'Arial', sans-serif;font-size:12px;fill:white;">Te<tspan x="83.651px " y="480.906px ">s</tspan>t 16: DROP <tspan x="154.261px 161.584px 169.582px " y="480.906px 480.906px 480.906px ">TAB</tspan>LE</text>
        <text x="182.16px" y="511.896px" style="font-family:'ArialMT', 'Arial', sans-serif;font-size:12px;fill:white;">0.000</text>
    </g>
    <text x="312.608px" y="511.9px" style="font-family:'ArialMT', 'Arial', sans-serif;font-size:12px;fill:white;">0.100</text>
    <text x="443.056px" y="511.9px" style="font-family:'ArialMT', 'Arial', sans-serif;font-size:12px;fill:white;">0.200</text>
    <text x="573.504px" y="511.9px" style="font-family:'ArialMT', 'Arial', sans-serif;font-size:12px;fill:white;">0.300</text>
    <text x="703.952px" y="511.9px" style="font-family:'ArialMT', 'Arial', sans-serif;font-size:12px;fill:white;">0.400</text>
    <text x="834.4px" y="511.9px" style="font-family:'ArialMT', 'Arial', sans-serif;font-size:12px;fill:white;">0.500</text>
    <text x="296.5px" y="38.1px" style="font-family:'ArialMT', 'Arial', sans-serif;font-size:12px;fill:white;">SQLite In-Memory</text>
    <text x="429.5px" y="38.1px" style="font-family:'ArialMT', 'Arial', sans-serif;font-size:12px;fill:white;">SQLite On-Disk</text>
    <text x="550.5px" y="38.1px" style="font-family:'ArialMT', 'Arial', sans-serif;font-size:12px;fill:white;">Postgres</text>
    <g transform="matrix(1,0,0,-1,0,68.2)">
        <path d="M276.5,39.1C276.5,39.652 276.948,40.1 277.5,40.1L287.5,40.1C288.052,40.1 288.5,39.652 288.5,39.1L288.5,29.1C288.5,28.548 288.052,28.1 287.5,28.1L277.5,28.1C276.948,28.1 276.5,28.548 276.5,29.1L276.5,39.1Z" style="fill:rgb(66,133,244);fill-rule:nonzero;"/>
    </g>
    <g transform="matrix(1,0,0,-1,0,68.2)">
        <path d="M409.5,39.1C409.5,39.652 409.948,40.1 410.5,40.1L420.5,40.1C421.052,40.1 421.5,39.652 421.5,39.1L421.5,29.1C421.5,28.548 421.052,28.1 420.5,28.1L410.5,28.1C409.948,28.1 409.5,28.548 409.5,29.1L409.5,39.1Z" style="fill:rgb(234,67,53);fill-rule:nonzero;"/>
    </g>
    <g transform="matrix(1,0,0,-1,0,68.2)">
        <path d="M530.5,39.1C530.5,39.652 530.948,40.1 531.5,40.1L541.5,40.1C542.052,40.1 542.5,39.652 542.5,39.1L542.5,29.1C542.5,28.548 542.052,28.1 541.5,28.1L531.5,28.1C530.948,28.1 530.5,28.548 530.5,29.1L530.5,39.1Z" style="fill:rgb(251,188,4);fill-rule:nonzero;"/>
    </g>
</svg>
